<svg xmlns="http://www.w3.org/2000/svg" viewBox="0 0 800 800">
<rect width="800" height="800" fill="#ffffff" />
<polygon points="27.45,27.45 772.55,27.45 772.55,772.55 27.45,772.55 " fill="none" stroke="#111827" stroke-width="2.50" />

<line x1="400.00" y1="748.71" x2="341.88" y2="748.71" stroke="#dc2626" stroke-width="2.00" stroke-linecap="round" />
<line x1="341.88" y1="748.71" x2="283.76" y2="748.71" stroke="#dc2626" stroke-width="2.00" stroke-linecap="round" />
<line x1="283.76" y1="748.71" x2="225.65" y2="748.71" stroke="#dc2626" stroke-width="2.00" stroke-linecap="round" />
<line x1="225.65" y1="748.71" x2="167.53" y2="748.71" stroke="#dc2626" stroke-width="2.00" stroke-linecap="round" />
<line x1="167.53" y1="748.71" x2="109.41" y2="748.71" stroke="#dc2626" stroke-width="2.00" stroke-linecap="round" />
<line x1="109.41" y1="748.71" x2="51.29" y2="748.71" stroke="#dc2626" stroke-width="2.00" stroke-linecap="round" />
<line x1="51.29" y1="748.71" x2="51.29" y2="690.59" stroke="#dc2626" stroke-width="2.00" stroke-linecap="round" />
<line x1="51.29" y1="690.59" x2="51.29" y2="632.47" stroke="#dc2626" stroke-width="2.00" stroke-linecap="round" />
<line x1="51.29" y1="632.47" x2="51.29" y2="574.35" stroke="#dc2626" stroke-width="2.00" stroke-linecap="round" />
<line x1="51.29" y1="574.35" x2="51.29" y2="516.24" stroke="#dc2626" stroke-width="2.00" stroke-linecap="round" />
<line x1="51.29" y1="516.24" x2="51.29" y2="458.12" stroke="#dc2626" stroke-width="2.00" stroke-linecap="round" />
<line x1="51.29" y1="458.12" x2="51.29" y2="400.00" stroke="#dc2626" stroke-width="2.00" stroke-linecap="round" />
<line x1="51.29" y1="400.00" x2="51.29" y2="341.88" stroke="#dc2626" stroke-width="2.00" stroke-linecap="round" />
<line x1="51.29" y1="341.88" x2="51.29" y2="283.76" stroke="#dc2626" stroke-width="2.00" stroke-linecap="round" />
<line x1="51.29" y1="283.76" x2="51.29" y2="225.65" stroke="#dc2626" stroke-width="2.00" stroke-linecap="round" />
<line x1="51.29" y1="225.65" x2="51.29" y2="167.53" stroke="#dc2626" stroke-width="2.00" stroke-linecap="round" />
<line x1="51.29" y1="167.53" x2="51.29" y2="109.41" stroke="#dc2626" stroke-width="2.00" stroke-linecap="round" />
<line x1="51.29" y1="109.41" x2="51.29" y2="51.29" stroke="#dc2626" stroke-width="2.00" stroke-linecap="round" />
<line x1="51.29" y1="51.29" x2="109.41" y2="51.29" stroke="#dc2626" stroke-width="2.00" stroke-linecap="round" />
<line x1="109.41" y1="51.29" x2="167.53" y2="51.29" stroke="#dc2626" stroke-width="2.00" stroke-linecap="round" />
<line x1="167.53" y1="51.29" x2="225.65" y2="51.29" stroke="#dc2626" stroke-width="2.00" stroke-linecap="round" />
<line x1="225.65" y1="51.29" x2="283.76" y2="51.29" stroke="#dc2626" stroke-width="2.00" stroke-linecap="round" />
<line x1="283.76" y1="51.29" x2="341.88" y2="51.29" stroke="#dc2626" stroke-width="2.00" stroke-linecap="round" />
<line x1="341.88" y1="51.29" x2="400.00" y2="51.29" stroke="#dc2626" stroke-width="2.00" stroke-linecap="round" />
<line x1="400.00" y1="51.29" x2="458.12" y2="51.29" stroke="#dc2626" stroke-width="2.00" stroke-linecap="round" />
<line x1="458.12" y1="51.29" x2="516.24" y2="51.29" stroke="#dc2626" stroke-width="2.00" stroke-linecap="round" />
<line x1="516.24" y1="51.29" x2="574.35" y2="51.29" stroke="#dc2626" stroke-width="2.00" stroke-linecap="round" />
<line x1="574.35" y1="51.29" x2="632.47" y2="51.29" stroke="#dc2626" stroke-width="2.00" stroke-linecap="round" />
<line x1="632.47" y1="51.29" x2="690.59" y2="51.29" stroke="#dc2626" stroke-width="2.00" stroke-linecap="round" />
<line x1="690.59" y1="51.29" x2="748.71" y2="51.29" stroke="#dc2626" stroke-width="2.00" stroke-linecap="round" />
<line x1="748.71" y1="51.29" x2="748.71" y2="109.41" stroke="#dc2626" stroke-width="2.00" stroke-linecap="round" />
<line x1="748.71" y1="109.41" x2="748.71" y2="167.53" stroke="#dc2626" stroke-width="2.00" stroke-linecap="round" />
<line x1="748.71" y1="167.53" x2="748.71" y2="225.65" stroke="#dc2626" stroke-width="2.00" stroke-linecap="round" />
<line x1="748.71" y1="225.65" x2="748.71" y2="283.76" stroke="#dc2626" stroke-width="2.00" stroke-linecap="round" />
<line x1="748.71" y1="283.76" x2="748.71" y2="341.88" stroke="#dc2626" stroke-width="2.00" stroke-linecap="round" />
<line x1="748.71" y1="341.88" x2="748.71" y2="400.00" stroke="#dc2626" stroke-width="2.00" stroke-linecap="round" />
<line x1="748.71" y1="400.00" x2="748.71" y2="458.12" stroke="#dc2626" stroke-width="2.00" stroke-linecap="round" />
<line x1="748.71" y1="458.12" x2="748.71" y2="516.24" stroke="#dc2626" stroke-width="2.00" stroke-linecap="round" />
<line x1="748.71" y1="516.24" x2="748.71" y2="574.35" stroke="#dc2626" stroke-width="2.00" stroke-linecap="round" />
<line x1="748.71" y1="574.35" x2="748.71" y2="632.47" stroke="#dc2626" stroke-width="2.00" stroke-linecap="round" />
<line x1="748.71" y1="632.47" x2="748.71" y2="690.59" stroke="#dc2626" stroke-width="2.00" stroke-linecap="round" />
<line x1="748.71" y1="690.59" x2="748.71" y2="748.71" stroke="#dc2626" stroke-width="2.00" stroke-linecap="round" />
<line x1="748.71" y1="748.71" x2="695.56" y2="748.71" stroke="#dc2626" stroke-width="2.00" stroke-linecap="round" />
<line x1="695.56" y1="748.71" x2="642.41" y2="748.71" stroke="#dc2626" stroke-width="2.00" stroke-linecap="round" />
<line x1="642.41" y1="748.71" x2="589.25" y2="748.71" stroke="#dc2626" stroke-width="2.00" stroke-linecap="round" />
<line x1="589.25" y1="748.71" x2="536.10" y2="748.71" stroke="#dc2626" stroke-width="2.00" stroke-linecap="round" />
<line x1="536.10" y1="748.71" x2="482.95" y2="748.71" stroke="#dc2626" stroke-width="2.00" stroke-linecap="round" />
<line x1="482.95" y1="748.71" x2="429.80" y2="748.71" stroke="#dc2626" stroke-width="2.00" stroke-linecap="round" />
<line x1="429.80" y1="748.71" x2="400.00" y2="718.90" stroke="#dc2626" stroke-width="2.00" stroke-linecap="round" />
<line x1="400.00" y1="718.90" x2="346.85" y2="718.90" stroke="#dc2626" stroke-width="2.00" stroke-linecap="round" />
<line x1="346.85" y1="718.90" x2="293.70" y2="718.90" stroke="#dc2626" stroke-width="2.00" stroke-linecap="round" />
<line x1="293.70" y1="718.90" x2="240.55" y2="718.90" stroke="#dc2626" stroke-width="2.00" stroke-linecap="round" />
<line x1="240.55" y1="718.90" x2="187.40" y2="718.90" stroke="#dc2626" stroke-width="2.00" stroke-linecap="round" />
<line x1="187.40" y1="718.90" x2="134.25" y2="718.90" stroke="#dc2626" stroke-width="2.00" stroke-linecap="round" />
<line x1="134.25" y1="718.90" x2="81.10" y2="718.90" stroke="#dc2626" stroke-width="2.00" stroke-linecap="round" />
<line x1="81.10" y1="718.90" x2="81.10" y2="660.92" stroke="#dc2626" stroke-width="2.00" stroke-linecap="round" />
<line x1="81.10" y1="660.92" x2="81.10" y2="602.94" stroke="#dc2626" stroke-width="2.00" stroke-linecap="round" />
<line x1="81.10" y1="602.94" x2="81.10" y2="544.96" stroke="#dc2626" stroke-width="2.00" stroke-linecap="round" />
<line x1="81.10" y1="544.96" x2="81.10" y2="486.97" stroke="#dc2626" stroke-width="2.00" stroke-linecap="round" />
<line x1="81.10" y1="486.97" x2="81.10" y2="428.99" stroke="#dc2626" stroke-width="2.00" stroke-linecap="round" />
<line x1="81.10" y1="428.99" x2="81.10" y2="371.01" stroke="#dc2626" stroke-width="2.00" stroke-linecap="round" />
<line x1="81.10" y1="371.01" x2="81.10" y2="313.03" stroke="#dc2626" stroke-width="2.00" stroke-linecap="round" />
<line x1="81.10" y1="313.03" x2="81.10" y2="255.04" stroke="#dc2626" stroke-width="2.00" stroke-linecap="round" />
<line x1="81.10" y1="255.04" x2="81.10" y2="197.06" stroke="#dc2626" stroke-width="2.00" stroke-linecap="round" />
<line x1="81.10" y1="197.06" x2="81.10" y2="139.08" stroke="#dc2626" stroke-width="2.00" stroke-linecap="round" />
<line x1="81.10" y1="139.08" x2="81.10" y2="81.10" stroke="#dc2626" stroke-width="2.00" stroke-linecap="round" />
<line x1="81.10" y1="81.10" x2="139.08" y2="81.10" stroke="#dc2626" stroke-width="2.00" stroke-linecap="round" />
<line x1="139.08" y1="81.10" x2="197.06" y2="81.10" stroke="#dc2626" stroke-width="2.00" stroke-linecap="round" />
<line x1="197.06" y1="81.10" x2="255.04" y2="81.10" stroke="#dc2626" stroke-width="2.00" stroke-linecap="round" />
<line x1="255.04" y1="81.10" x2="313.03" y2="81.10" stroke="#dc2626" stroke-width="2.00" stroke-linecap="round" />
<line x1="313.03" y1="81.10" x2="371.01" y2="81.10" stroke="#dc2626" stroke-width="2.00" stroke-linecap="round" />
<line x1="371.01" y1="81.10" x2="428.99" y2="81.10" stroke="#dc2626" stroke-width="2.00" stroke-linecap="round" />
<line x1="428.99" y1="81.10" x2="486.97" y2="81.10" stroke="#dc2626" stroke-width="2.00" stroke-linecap="round" />
<line x1="486.97" y1="81.10" x2="544.96" y2="81.10" stroke="#dc2626" stroke-width="2.00" stroke-linecap="round" />
<line x1="544.96" y1="81.10" x2="602.94" y2="81.10" stroke="#dc2626" stroke-width="2.00" stroke-linecap="round" />
<line x1="602.94" y1="81.10" x2="660.92" y2="81.10" stroke="#dc2626" stroke-width="2.00" stroke-linecap="round" />
<line x1="660.92" y1="81.10" x2="718.90" y2="81.10" stroke="#dc2626" stroke-width="2.00" stroke-linecap="round" />
<line x1="718.90" y1="81.10" x2="718.90" y2="139.08" stroke="#dc2626" stroke-width="2.00" stroke-linecap="round" />
<line x1="718.90" y1="139.08" x2="718.90" y2="197.06" stroke="#dc2626" stroke-width="2.00" stroke-linecap="round" />
<line x1="718.90" y1="197.06" x2="718.90" y2="255.04" stroke="#dc2626" stroke-width="2.00" stroke-linecap="round" />
<line x1="718.90" y1="255.04" x2="718.90" y2="313.03" stroke="#dc2626" stroke-width="2.00" stroke-linecap="round" />
<line x1="718.90" y1="313.03" x2="718.90" y2="371.01" stroke="#dc2626" stroke-width="2.00" stroke-linecap="round" />
<line x1="718.90" y1="371.01" x2="718.90" y2="428.99" stroke="#dc2626" stroke-width="2.00" stroke-linecap="round" />
<line x1="718.90" y1="428.99" x2="718.90" y2="486.97" stroke="#dc2626" stroke-width="2.00" stroke-linecap="round" />
<line x1="718.90" y1="486.97" x2="718.90" y2="544.96" stroke="#dc2626" stroke-width="2.00" stroke-linecap="round" />
<line x1="718.90" y1="544.96" x2="718.90" y2="602.94" stroke="#dc2626" stroke-width="2.00" stroke-linecap="round" />
<line x1="718.90" y1="602.94" x2="718.90" y2="660.92" stroke="#dc2626" stroke-width="2.00" stroke-linecap="round" />
<line x1="718.90" y1="660.92" x2="718.90" y2="718.90" stroke="#dc2626" stroke-width="2.00" stroke-linecap="round" />
<line x1="718.90" y1="718.90" x2="661.08" y2="718.90" stroke="#dc2626" stroke-width="2.00" stroke-linecap="round" />
<line x1="661.08" y1="718.90" x2="603.26" y2="718.90" stroke="#dc2626" stroke-width="2.00" stroke-linecap="round" />
<line x1="603.26" y1="718.90" x2="545.44" y2="718.90" stroke="#dc2626" stroke-width="2.00" stroke-linecap="round" />
<line x1="545.44" y1="718.90" x2="487.62" y2="718.90" stroke="#dc2626" stroke-width="2.00" stroke-linecap="round" />
<line x1="487.62" y1="718.90" x2="429.80" y2="718.90" stroke="#dc2626" stroke-width="2.00" stroke-linecap="round" />
<line x1="429.80" y1="718.90" x2="400.00" y2="689.10" stroke="#dc2626" stroke-width="2.00" stroke-linecap="round" />
<line x1="400.00" y1="689.10" x2="342.18" y2="689.10" stroke="#dc2626" stroke-width="2.00" stroke-linecap="round" />
<line x1="342.18" y1="689.10" x2="284.36" y2="689.10" stroke="#dc2626" stroke-width="2.00" stroke-linecap="round" />
<line x1="284.36" y1="689.10" x2="226.54" y2="689.10" stroke="#dc2626" stroke-width="2.00" stroke-linecap="round" />
<line x1="226.54" y1="689.10" x2="168.72" y2="689.10" stroke="#dc2626" stroke-width="2.00" stroke-linecap="round" />
<line x1="168.72" y1="689.10" x2="110.90" y2="689.10" stroke="#dc2626" stroke-width="2.00" stroke-linecap="round" />
<line x1="110.90" y1="689.10" x2="110.90" y2="631.28" stroke="#dc2626" stroke-width="2.00" stroke-linecap="round" />
<line x1="110.90" y1="631.28" x2="110.90" y2="573.46" stroke="#dc2626" stroke-width="2.00" stroke-linecap="round" />
<line x1="110.90" y1="573.46" x2="110.90" y2="515.64" stroke="#dc2626" stroke-width="2.00" stroke-linecap="round" />
<line x1="110.90" y1="515.64" x2="110.90" y2="457.82" stroke="#dc2626" stroke-width="2.00" stroke-linecap="round" />
<line x1="110.90" y1="457.82" x2="110.90" y2="400.00" stroke="#dc2626" stroke-width="2.00" stroke-linecap="round" />
<line x1="110.90" y1="400.00" x2="110.90" y2="342.18" stroke="#dc2626" stroke-width="2.00" stroke-linecap="round" />
<line x1="110.90" y1="342.18" x2="110.90" y2="284.36" stroke="#dc2626" stroke-width="2.00" stroke-linecap="round" />
<line x1="110.90" y1="284.36" x2="110.90" y2="226.54" stroke="#dc2626" stroke-width="2.00" stroke-linecap="round" />
<line x1="110.90" y1="226.54" x2="110.90" y2="168.72" stroke="#dc2626" stroke-width="2.00" stroke-linecap="round" />
<line x1="110.90" y1="168.72" x2="110.90" y2="110.90" stroke="#dc2626" stroke-width="2.00" stroke-linecap="round" />
<line x1="110.90" y1="110.90" x2="168.72" y2="110.90" stroke="#dc2626" stroke-width="2.00" stroke-linecap="round" />
<line x1="168.72" y1="110.90" x2="226.54" y2="110.90" stroke="#dc2626" stroke-width="2.00" stroke-linecap="round" />
<line x1="226.54" y1="110.90" x2="284.36" y2="110.90" stroke="#dc2626" stroke-width="2.00" stroke-linecap="round" />
<line x1="284.36" y1="110.90" x2="342.18" y2="110.90" stroke="#dc2626" stroke-width="2.00" stroke-linecap="round" />
<line x1="342.18" y1="110.90" x2="400.00" y2="110.90" stroke="#dc2626" stroke-width="2.00" stroke-linecap="round" />
<line x1="400.00" y1="110.90" x2="457.82" y2="110.90" stroke="#dc2626" stroke-width="2.00" stroke-linecap="round" />
<line x1="457.82" y1="110.90" x2="515.64" y2="110.90" stroke="#dc2626" stroke-width="2.00" stroke-linecap="round" />
<line x1="515.64" y1="110.90" x2="573.46" y2="110.90" stroke="#dc2626" stroke-width="2.00" stroke-linecap="round" />
<line x1="573.46" y1="110.90" x2="631.28" y2="110.90" stroke="#dc2626" stroke-width="2.00" stroke-linecap="round" />
<line x1="631.28" y1="110.90" x2="689.10" y2="110.90" stroke="#dc2626" stroke-width="2.00" stroke-linecap="round" />
<line x1="689.10" y1="110.90" x2="689.10" y2="168.72" stroke="#dc2626" stroke-width="2.00" stroke-linecap="round" />
<line x1="689.10" y1="168.72" x2="689.10" y2="226.54" stroke="#dc2626" stroke-width="2.00" stroke-linecap="round" />
<line x1="689.10" y1="226.54" x2="689.10" y2="284.36" stroke="#dc2626" stroke-width="2.00" stroke-linecap="round" />
<line x1="689.10" y1="284.36" x2="689.10" y2="342.18" stroke="#dc2626" stroke-width="2.00" stroke-linecap="round" />
<line x1="689.10" y1="342.18" x2="689.10" y2="400.00" stroke="#dc2626" stroke-width="2.00" stroke-linecap="round" />
<line x1="689.10" y1="400.00" x2="689.10" y2="457.82" stroke="#dc2626" stroke-width="2.00" stroke-linecap="round" />
<line x1="689.10" y1="457.82" x2="689.10" y2="515.64" stroke="#dc2626" stroke-width="2.00" stroke-linecap="round" />
<line x1="689.10" y1="515.64" x2="689.10" y2="573.46" stroke="#dc2626" stroke-width="2.00" stroke-linecap="round" />
<line x1="689.10" y1="573.46" x2="689.10" y2="631.28" stroke="#dc2626" stroke-width="2.00" stroke-linecap="round" />
<line x1="689.10" y1="631.28" x2="689.10" y2="689.10" stroke="#dc2626" stroke-width="2.00" stroke-linecap="round" />
<line x1="689.10" y1="689.10" x2="637.24" y2="689.10" stroke="#dc2626" stroke-width="2.00" stroke-linecap="round" />
<line x1="637.24" y1="689.10" x2="585.38" y2="689.10" stroke="#dc2626" stroke-width="2.00" stroke-linecap="round" />
<line x1="585.38" y1="689.10" x2="533.52" y2="689.10" stroke="#dc2626" stroke-width="2.00" stroke-linecap="round" />
<line x1="533.52" y1="689.10" x2="481.66" y2="689.10" stroke="#dc2626" stroke-width="2.00" stroke-linecap="round" />
<line x1="481.66" y1="689.10" x2="429.80" y2="689.10" stroke="#dc2626" stroke-width="2.00" stroke-linecap="round" />
<line x1="429.80" y1="689.10" x2="400.00" y2="659.29" stroke="#dc2626" stroke-width="2.00" stroke-linecap="round" />
<line x1="400.00" y1="659.29" x2="348.14" y2="659.29" stroke="#dc2626" stroke-width="2.00" stroke-linecap="round" />
<line x1="348.14" y1="659.29" x2="296.28" y2="659.29" stroke="#dc2626" stroke-width="2.00" stroke-linecap="round" />
<line x1="296.28" y1="659.29" x2="244.42" y2="659.29" stroke="#dc2626" stroke-width="2.00" stroke-linecap="round" />
<line x1="244.42" y1="659.29" x2="192.56" y2="659.29" stroke="#dc2626" stroke-width="2.00" stroke-linecap="round" />
<line x1="192.56" y1="659.29" x2="140.71" y2="659.29" stroke="#dc2626" stroke-width="2.00" stroke-linecap="round" />
<line x1="140.71" y1="659.29" x2="140.71" y2="601.67" stroke="#dc2626" stroke-width="2.00" stroke-linecap="round" />
<line x1="140.71" y1="601.67" x2="140.71" y2="544.05" stroke="#dc2626" stroke-width="2.00" stroke-linecap="round" />
<line x1="140.71" y1="544.05" x2="140.71" y2="486.43" stroke="#dc2626" stroke-width="2.00" stroke-linecap="round" />
<line x1="140.71" y1="486.43" x2="140.71" y2="428.81" stroke="#dc2626" stroke-width="2.00" stroke-linecap="round" />
<line x1="140.71" y1="428.81" x2="140.71" y2="371.19" stroke="#dc2626" stroke-width="2.00" stroke-linecap="round" />
<line x1="140.71" y1="371.19" x2="140.71" y2="313.57" stroke="#dc2626" stroke-width="2.00" stroke-linecap="round" />
<line x1="140.71" y1="313.57" x2="140.71" y2="255.95" stroke="#dc2626" stroke-width="2.00" stroke-linecap="round" />
<line x1="140.71" y1="255.95" x2="140.71" y2="198.33" stroke="#dc2626" stroke-width="2.00" stroke-linecap="round" />
<line x1="140.71" y1="198.33" x2="140.71" y2="140.71" stroke="#dc2626" stroke-width="2.00" stroke-linecap="round" />
<line x1="140.71" y1="140.71" x2="198.33" y2="140.71" stroke="#dc2626" stroke-width="2.00" stroke-linecap="round" />
<line x1="198.33" y1="140.71" x2="255.95" y2="140.71" stroke="#dc2626" stroke-width="2.00" stroke-linecap="round" />
<line x1="255.95" y1="140.71" x2="313.57" y2="140.71" stroke="#dc2626" stroke-width="2.00" stroke-linecap="round" />
<line x1="313.57" y1="140.71" x2="371.19" y2="140.71" stroke="#dc2626" stroke-width="2.00" stroke-linecap="round" />
<line x1="371.19" y1="140.71" x2="428.81" y2="140.71" stroke="#dc2626" stroke-width="2.00" stroke-linecap="round" />
<line x1="428.81" y1="140.71" x2="486.43" y2="140.71" stroke="#dc2626" stroke-width="2.00" stroke-linecap="round" />
<line x1="486.43" y1="140.71" x2="544.05" y2="140.71" stroke="#dc2626" stroke-width="2.00" stroke-linecap="round" />
<line x1="544.05" y1="140.71" x2="601.67" y2="140.71" stroke="#dc2626" stroke-width="2.00" stroke-linecap="round" />
<line x1="601.67" y1="140.71" x2="659.29" y2="140.71" stroke="#dc2626" stroke-width="2.00" stroke-linecap="round" />
<line x1="659.29" y1="140.71" x2="659.29" y2="198.33" stroke="#dc2626" stroke-width="2.00" stroke-linecap="round" />
<line x1="659.29" y1="198.33" x2="659.29" y2="255.95" stroke="#dc2626" stroke-width="2.00" stroke-linecap="round" />
<line x1="659.29" y1="255.95" x2="659.29" y2="313.57" stroke="#dc2626" stroke-width="2.00" stroke-linecap="round" />
<line x1="659.29" y1="313.57" x2="659.29" y2="371.19" stroke="#dc2626" stroke-width="2.00" stroke-linecap="round" />
<line x1="659.29" y1="371.19" x2="659.29" y2="428.81" stroke="#dc2626" stroke-width="2.00" stroke-linecap="round" />
<line x1="659.29" y1="428.81" x2="659.29" y2="486.43" stroke="#dc2626" stroke-width="2.00" stroke-linecap="round" />
<line x1="659.29" y1="486.43" x2="659.29" y2="544.05" stroke="#dc2626" stroke-width="2.00" stroke-linecap="round" />
<line x1="659.29" y1="544.05" x2="659.29" y2="601.67" stroke="#dc2626" stroke-width="2.00" stroke-linecap="round" />
<line x1="659.29" y1="601.67" x2="659.29" y2="659.29" stroke="#dc2626" stroke-width="2.00" stroke-linecap="round" />
<line x1="659.29" y1="659.29" x2="601.92" y2="659.29" stroke="#dc2626" stroke-width="2.00" stroke-linecap="round" />
<line x1="601.92" y1="659.29" x2="544.55" y2="659.29" stroke="#dc2626" stroke-width="2.00" stroke-linecap="round" />
<line x1="544.55" y1="659.29" x2="487.18" y2="659.29" stroke="#dc2626" stroke-width="2.00" stroke-linecap="round" />
<line x1="487.18" y1="659.29" x2="429.80" y2="659.29" stroke="#dc2626" stroke-width="2.00" stroke-linecap="round" />
<line x1="429.80" y1="659.29" x2="400.00" y2="629.49" stroke="#dc2626" stroke-width="2.00" stroke-linecap="round" />
<line x1="400.00" y1="629.49" x2="342.63" y2="629.49" stroke="#dc2626" stroke-width="2.00" stroke-linecap="round" />
<line x1="342.63" y1="629.49" x2="285.25" y2="629.49" stroke="#dc2626" stroke-width="2.00" stroke-linecap="round" />
<line x1="285.25" y1="629.49" x2="227.88" y2="629.49" stroke="#dc2626" stroke-width="2.00" stroke-linecap="round" />
<line x1="227.88" y1="629.49" x2="170.51" y2="629.49" stroke="#dc2626" stroke-width="2.00" stroke-linecap="round" />
<line x1="170.51" y1="629.49" x2="170.51" y2="572.12" stroke="#dc2626" stroke-width="2.00" stroke-linecap="round" />
<line x1="170.51" y1="572.12" x2="170.51" y2="514.75" stroke="#dc2626" stroke-width="2.00" stroke-linecap="round" />
<line x1="170.51" y1="514.75" x2="170.51" y2="457.37" stroke="#dc2626" stroke-width="2.00" stroke-linecap="round" />
<line x1="170.51" y1="457.37" x2="170.51" y2="400.00" stroke="#dc2626" stroke-width="2.00" stroke-linecap="round" />
<line x1="170.51" y1="400.00" x2="170.51" y2="342.63" stroke="#dc2626" stroke-width="2.00" stroke-linecap="round" />
<line x1="170.51" y1="342.63" x2="170.51" y2="285.25" stroke="#dc2626" stroke-width="2.00" stroke-linecap="round" />
<line x1="170.51" y1="285.25" x2="170.51" y2="227.88" stroke="#dc2626" stroke-width="2.00" stroke-linecap="round" />
<line x1="170.51" y1="227.88" x2="170.51" y2="170.51" stroke="#dc2626" stroke-width="2.00" stroke-linecap="round" />
<line x1="170.51" y1="170.51" x2="227.88" y2="170.51" stroke="#dc2626" stroke-width="2.00" stroke-linecap="round" />
<line x1="227.88" y1="170.51" x2="285.25" y2="170.51" stroke="#dc2626" stroke-width="2.00" stroke-linecap="round" />
<line x1="285.25" y1="170.51" x2="342.63" y2="170.51" stroke="#dc2626" stroke-width="2.00" stroke-linecap="round" />
<line x1="342.63" y1="170.51" x2="400.00" y2="170.51" stroke="#dc2626" stroke-width="2.00" stroke-linecap="round" />
<line x1="400.00" y1="170.51" x2="457.37" y2="170.51" stroke="#dc2626" stroke-width="2.00" stroke-linecap="round" />
<line x1="457.37" y1="170.51" x2="514.75" y2="170.51" stroke="#dc2626" stroke-width="2.00" stroke-linecap="round" />
<line x1="514.75" y1="170.51" x2="572.12" y2="170.51" stroke="#dc2626" stroke-width="2.00" stroke-linecap="round" />
<line x1="572.12" y1="170.51" x2="629.49" y2="170.51" stroke="#dc2626" stroke-width="2.00" stroke-linecap="round" />
<line x1="629.49" y1="170.51" x2="629.49" y2="227.88" stroke="#dc2626" stroke-width="2.00" stroke-linecap="round" />
<line x1="629.49" y1="227.88" x2="629.49" y2="285.25" stroke="#dc2626" stroke-width="2.00" stroke-linecap="round" />
<line x1="629.49" y1="285.25" x2="629.49" y2="342.63" stroke="#dc2626" stroke-width="2.00" stroke-linecap="round" />
<line x1="629.49" y1="342.63" x2="629.49" y2="400.00" stroke="#dc2626" stroke-width="2.00" stroke-linecap="round" />
<line x1="629.49" y1="400.00" x2="629.49" y2="457.37" stroke="#dc2626" stroke-width="2.00" stroke-linecap="round" />
<line x1="629.49" y1="457.37" x2="629.49" y2="514.75" stroke="#dc2626" stroke-width="2.00" stroke-linecap="round" />
<line x1="629.49" y1="514.75" x2="629.49" y2="572.12" stroke="#dc2626" stroke-width="2.00" stroke-linecap="round" />
<line x1="629.49" y1="572.12" x2="629.49" y2="629.49" stroke="#dc2626" stroke-width="2.00" stroke-linecap="round" />
<line x1="629.49" y1="629.49" x2="579.57" y2="629.49" stroke="#dc2626" stroke-width="2.00" stroke-linecap="round" />
<line x1="579.57" y1="629.49" x2="529.65" y2="629.49" stroke="#dc2626" stroke-width="2.00" stroke-linecap="round" />
<line x1="529.65" y1="629.49" x2="479.73" y2="629.49" stroke="#dc2626" stroke-width="2.00" stroke-linecap="round" />
<line x1="479.73" y1="629.49" x2="429.80" y2="629.49" stroke="#dc2626" stroke-width="2.00" stroke-linecap="round" />
<line x1="429.80" y1="629.49" x2="400.00" y2="599.69" stroke="#dc2626" stroke-width="2.00" stroke-linecap="round" />
<line x1="400.00" y1="599.69" x2="350.08" y2="599.69" stroke="#dc2626" stroke-width="2.00" stroke-linecap="round" />
<line x1="350.08" y1="599.69" x2="300.16" y2="599.69" stroke="#dc2626" stroke-width="2.00" stroke-linecap="round" />
<line x1="300.16" y1="599.69" x2="250.24" y2="599.69" stroke="#dc2626" stroke-width="2.00" stroke-linecap="round" />
<line x1="250.24" y1="599.69" x2="200.31" y2="599.69" stroke="#dc2626" stroke-width="2.00" stroke-linecap="round" />
<line x1="200.31" y1="599.69" x2="200.31" y2="542.63" stroke="#dc2626" stroke-width="2.00" stroke-linecap="round" />
<line x1="200.31" y1="542.63" x2="200.31" y2="485.58" stroke="#dc2626" stroke-width="2.00" stroke-linecap="round" />
<line x1="200.31" y1="485.58" x2="200.31" y2="428.53" stroke="#dc2626" stroke-width="2.00" stroke-linecap="round" />
<line x1="200.31" y1="428.53" x2="200.31" y2="371.47" stroke="#dc2626" stroke-width="2.00" stroke-linecap="round" />
<line x1="200.31" y1="371.47" x2="200.31" y2="314.42" stroke="#dc2626" stroke-width="2.00" stroke-linecap="round" />
<line x1="200.31" y1="314.42" x2="200.31" y2="257.37" stroke="#dc2626" stroke-width="2.00" stroke-linecap="round" />
<line x1="200.31" y1="257.37" x2="200.31" y2="200.31" stroke="#dc2626" stroke-width="2.00" stroke-linecap="round" />
<line x1="200.31" y1="200.31" x2="257.37" y2="200.31" stroke="#dc2626" stroke-width="2.00" stroke-linecap="round" />
<line x1="257.37" y1="200.31" x2="314.42" y2="200.31" stroke="#dc2626" stroke-width="2.00" stroke-linecap="round" />
<line x1="314.42" y1="200.31" x2="371.47" y2="200.31" stroke="#dc2626" stroke-width="2.00" stroke-linecap="round" />
<line x1="371.47" y1="200.31" x2="428.53" y2="200.31" stroke="#dc2626" stroke-width="2.00" stroke-linecap="round" />
<line x1="428.53" y1="200.31" x2="485.58" y2="200.31" stroke="#dc2626" stroke-width="2.00" stroke-linecap="round" />
<line x1="485.58" y1="200.31" x2="542.63" y2="200.31" stroke="#dc2626" stroke-width="2.00" stroke-linecap="round" />
<line x1="542.63" y1="200.31" x2="599.69" y2="200.31" stroke="#dc2626" stroke-width="2.00" stroke-linecap="round" />
<line x1="599.69" y1="200.31" x2="599.69" y2="257.37" stroke="#dc2626" stroke-width="2.00" stroke-linecap="round" />
<line x1="599.69" y1="257.37" x2="599.69" y2="314.42" stroke="#dc2626" stroke-width="2.00" stroke-linecap="round" />
<line x1="599.69" y1="314.42" x2="599.69" y2="371.47" stroke="#dc2626" stroke-width="2.00" stroke-linecap="round" />
<line x1="599.69" y1="371.47" x2="599.69" y2="428.53" stroke="#dc2626" stroke-width="2.00" stroke-linecap="round" />
<line x1="599.69" y1="428.53" x2="599.69" y2="485.58" stroke="#dc2626" stroke-width="2.00" stroke-linecap="round" />
<line x1="599.69" y1="485.58" x2="599.69" y2="542.63" stroke="#dc2626" stroke-width="2.00" stroke-linecap="round" />
<line x1="599.69" y1="542.63" x2="599.69" y2="599.69" stroke="#dc2626" stroke-width="2.00" stroke-linecap="round" />
<line x1="599.69" y1="599.69" x2="543.06" y2="599.69" stroke="#dc2626" stroke-width="2.00" stroke-linecap="round" />
<line x1="543.06" y1="599.69" x2="486.43" y2="599.69" stroke="#dc2626" stroke-width="2.00" stroke-linecap="round" />
<line x1="486.43" y1="599.69" x2="429.80" y2="599.69" stroke="#dc2626" stroke-width="2.00" stroke-linecap="round" />
<line x1="429.80" y1="599.69" x2="400.00" y2="569.88" stroke="#dc2626" stroke-width="2.00" stroke-linecap="round" />
<line x1="400.00" y1="569.88" x2="343.37" y2="569.88" stroke="#dc2626" stroke-width="2.00" stroke-linecap="round" />
<line x1="343.37" y1="569.88" x2="286.75" y2="569.88" stroke="#dc2626" stroke-width="2.00" stroke-linecap="round" />
<line x1="286.75" y1="569.88" x2="230.12" y2="569.88" stroke="#dc2626" stroke-width="2.00" stroke-linecap="round" />
<line x1="230.12" y1="569.88" x2="230.12" y2="513.25" stroke="#dc2626" stroke-width="2.00" stroke-linecap="round" />
<line x1="230.12" y1="513.25" x2="230.12" y2="456.63" stroke="#dc2626" stroke-width="2.00" stroke-linecap="round" />
<line x1="230.12" y1="456.63" x2="230.12" y2="400.00" stroke="#dc2626" stroke-width="2.00" stroke-linecap="round" />
<line x1="230.12" y1="400.00" x2="230.12" y2="343.37" stroke="#dc2626" stroke-width="2.00" stroke-linecap="round" />
<line x1="230.12" y1="343.37" x2="230.12" y2="286.75" stroke="#dc2626" stroke-width="2.00" stroke-linecap="round" />
<line x1="230.12" y1="286.75" x2="230.12" y2="230.12" stroke="#dc2626" stroke-width="2.00" stroke-linecap="round" />
<line x1="230.12" y1="230.12" x2="286.75" y2="230.12" stroke="#dc2626" stroke-width="2.00" stroke-linecap="round" />
<line x1="286.75" y1="230.12" x2="343.37" y2="230.12" stroke="#dc2626" stroke-width="2.00" stroke-linecap="round" />
<line x1="343.37" y1="230.12" x2="400.00" y2="230.12" stroke="#dc2626" stroke-width="2.00" stroke-linecap="round" />
<line x1="400.00" y1="230.12" x2="456.63" y2="230.12" stroke="#dc2626" stroke-width="2.00" stroke-linecap="round" />
<line x1="456.63" y1="230.12" x2="513.25" y2="230.12" stroke="#dc2626" stroke-width="2.00" stroke-linecap="round" />
<line x1="513.25" y1="230.12" x2="569.88" y2="230.12" stroke="#dc2626" stroke-width="2.00" stroke-linecap="round" />
<line x1="569.88" y1="230.12" x2="569.88" y2="286.75" stroke="#dc2626" stroke-width="2.00" stroke-linecap="round" />
<line x1="569.88" y1="286.75" x2="569.88" y2="343.37" stroke="#dc2626" stroke-width="2.00" stroke-linecap="round" />
<line x1="569.88" y1="343.37" x2="569.88" y2="400.00" stroke="#dc2626" stroke-width="2.00" stroke-linecap="round" />
<line x1="569.88" y1="400.00" x2="569.88" y2="456.63" stroke="#dc2626" stroke-width="2.00" stroke-linecap="round" />
<line x1="569.88" y1="456.63" x2="569.88" y2="513.25" stroke="#dc2626" stroke-width="2.00" stroke-linecap="round" />
<line x1="569.88" y1="513.25" x2="569.88" y2="569.88" stroke="#dc2626" stroke-width="2.00" stroke-linecap="round" />
<line x1="569.88" y1="569.88" x2="523.19" y2="569.88" stroke="#dc2626" stroke-width="2.00" stroke-linecap="round" />
<line x1="523.19" y1="569.88" x2="476.50" y2="569.88" stroke="#dc2626" stroke-width="2.00" stroke-linecap="round" />
<line x1="476.50" y1="569.88" x2="429.80" y2="569.88" stroke="#dc2626" stroke-width="2.00" stroke-linecap="round" />
<line x1="429.80" y1="569.88" x2="400.00" y2="540.08" stroke="#dc2626" stroke-width="2.00" stroke-linecap="round" />
<line x1="400.00" y1="540.08" x2="353.31" y2="540.08" stroke="#dc2626" stroke-width="2.00" stroke-linecap="round" />
<line x1="353.31" y1="540.08" x2="306.61" y2="540.08" stroke="#dc2626" stroke-width="2.00" stroke-linecap="round" />
<line x1="306.61" y1="540.08" x2="259.92" y2="540.08" stroke="#dc2626" stroke-width="2.00" stroke-linecap="round" />
<line x1="259.92" y1="540.08" x2="259.92" y2="484.05" stroke="#dc2626" stroke-width="2.00" stroke-linecap="round" />
<line x1="259.92" y1="484.05" x2="259.92" y2="428.02" stroke="#dc2626" stroke-width="2.00" stroke-linecap="round" />
<line x1="259.92" y1="428.02" x2="259.92" y2="371.98" stroke="#dc2626" stroke-width="2.00" stroke-linecap="round" />
<line x1="259.92" y1="371.98" x2="259.92" y2="315.95" stroke="#dc2626" stroke-width="2.00" stroke-linecap="round" />
<line x1="259.92" y1="315.95" x2="259.92" y2="259.92" stroke="#dc2626" stroke-width="2.00" stroke-linecap="round" />
<line x1="259.92" y1="259.92" x2="315.95" y2="259.92" stroke="#dc2626" stroke-width="2.00" stroke-linecap="round" />
<line x1="315.95" y1="259.92" x2="371.98" y2="259.92" stroke="#dc2626" stroke-width="2.00" stroke-linecap="round" />
<line x1="371.98" y1="259.92" x2="428.02" y2="259.92" stroke="#dc2626" stroke-width="2.00" stroke-linecap="round" />
<line x1="428.02" y1="259.92" x2="484.05" y2="259.92" stroke="#dc2626" stroke-width="2.00" stroke-linecap="round" />
<line x1="484.05" y1="259.92" x2="540.08" y2="259.92" stroke="#dc2626" stroke-width="2.00" stroke-linecap="round" />
<line x1="540.08" y1="259.92" x2="540.08" y2="315.95" stroke="#dc2626" stroke-width="2.00" stroke-linecap="round" />
<line x1="540.08" y1="315.95" x2="540.08" y2="371.98" stroke="#dc2626" stroke-width="2.00" stroke-linecap="round" />
<line x1="540.08" y1="371.98" x2="540.08" y2="428.02" stroke="#dc2626" stroke-width="2.00" stroke-linecap="round" />
<line x1="540.08" y1="428.02" x2="540.08" y2="484.05" stroke="#dc2626" stroke-width="2.00" stroke-linecap="round" />
<line x1="540.08" y1="484.05" x2="540.08" y2="540.08" stroke="#dc2626" stroke-width="2.00" stroke-linecap="round" />
<line x1="540.08" y1="540.08" x2="484.94" y2="540.08" stroke="#dc2626" stroke-width="2.00" stroke-linecap="round" />
<line x1="484.94" y1="540.08" x2="429.80" y2="540.08" stroke="#dc2626" stroke-width="2.00" stroke-linecap="round" />
<line x1="429.80" y1="540.08" x2="400.00" y2="510.27" stroke="#dc2626" stroke-width="2.00" stroke-linecap="round" />
<line x1="400.00" y1="510.27" x2="344.86" y2="510.27" stroke="#dc2626" stroke-width="2.00" stroke-linecap="round" />
<line x1="344.86" y1="510.27" x2="289.73" y2="510.27" stroke="#dc2626" stroke-width="2.00" stroke-linecap="round" />
<line x1="289.73" y1="510.27" x2="289.73" y2="455.14" stroke="#dc2626" stroke-width="2.00" stroke-linecap="round" />
<line x1="289.73" y1="455.14" x2="289.73" y2="400.00" stroke="#dc2626" stroke-width="2.00" stroke-linecap="round" />
<line x1="289.73" y1="400.00" x2="289.73" y2="344.86" stroke="#dc2626" stroke-width="2.00" stroke-linecap="round" />
<line x1="289.73" y1="344.86" x2="289.73" y2="289.73" stroke="#dc2626" stroke-width="2.00" stroke-linecap="round" />
<line x1="289.73" y1="289.73" x2="344.86" y2="289.73" stroke="#dc2626" stroke-width="2.00" stroke-linecap="round" />
<line x1="344.86" y1="289.73" x2="400.00" y2="289.73" stroke="#dc2626" stroke-width="2.00" stroke-linecap="round" />
<line x1="400.00" y1="289.73" x2="455.14" y2="289.73" stroke="#dc2626" stroke-width="2.00" stroke-linecap="round" />
<line x1="455.14" y1="289.73" x2="510.27" y2="289.73" stroke="#dc2626" stroke-width="2.00" stroke-linecap="round" />
<line x1="510.27" y1="289.73" x2="510.27" y2="344.86" stroke="#dc2626" stroke-width="2.00" stroke-linecap="round" />
<line x1="510.27" y1="344.86" x2="510.27" y2="400.00" stroke="#dc2626" stroke-width="2.00" stroke-linecap="round" />
<line x1="510.27" y1="400.00" x2="510.27" y2="455.14" stroke="#dc2626" stroke-width="2.00" stroke-linecap="round" />
<line x1="510.27" y1="455.14" x2="510.27" y2="510.27" stroke="#dc2626" stroke-width="2.00" stroke-linecap="round" />
<line x1="510.27" y1="510.27" x2="470.04" y2="510.27" stroke="#dc2626" stroke-width="2.00" stroke-linecap="round" />
<line x1="470.04" y1="510.27" x2="429.80" y2="510.27" stroke="#dc2626" stroke-width="2.00" stroke-linecap="round" />
<line x1="429.80" y1="510.27" x2="400.00" y2="480.47" stroke="#dc2626" stroke-width="2.00" stroke-linecap="round" />
<line x1="400.00" y1="480.47" x2="359.76" y2="480.47" stroke="#dc2626" stroke-width="2.00" stroke-linecap="round" />
<line x1="359.76" y1="480.47" x2="319.53" y2="480.47" stroke="#dc2626" stroke-width="2.00" stroke-linecap="round" />
<line x1="319.53" y1="480.47" x2="319.53" y2="426.82" stroke="#dc2626" stroke-width="2.00" stroke-linecap="round" />
<line x1="319.53" y1="426.82" x2="319.53" y2="373.18" stroke="#dc2626" stroke-width="2.00" stroke-linecap="round" />
<line x1="319.53" y1="373.18" x2="319.53" y2="319.53" stroke="#dc2626" stroke-width="2.00" stroke-linecap="round" />
<line x1="319.53" y1="319.53" x2="373.18" y2="319.53" stroke="#dc2626" stroke-width="2.00" stroke-linecap="round" />
<line x1="373.18" y1="319.53" x2="426.82" y2="319.53" stroke="#dc2626" stroke-width="2.00" stroke-linecap="round" />
<line x1="426.82" y1="319.53" x2="480.47" y2="319.53" stroke="#dc2626" stroke-width="2.00" stroke-linecap="round" />
<line x1="480.47" y1="319.53" x2="480.47" y2="373.18" stroke="#dc2626" stroke-width="2.00" stroke-linecap="round" />
<line x1="480.47" y1="373.18" x2="480.47" y2="426.82" stroke="#dc2626" stroke-width="2.00" stroke-linecap="round" />
<line x1="480.47" y1="426.82" x2="480.47" y2="480.47" stroke="#dc2626" stroke-width="2.00" stroke-linecap="round" />
<line x1="480.47" y1="480.47" x2="429.80" y2="480.47" stroke="#dc2626" stroke-width="2.00" stroke-linecap="round" />
<line x1="429.80" y1="480.47" x2="400.00" y2="450.67" stroke="#dc2626" stroke-width="2.00" stroke-linecap="round" />
<line x1="400.00" y1="450.67" x2="349.33" y2="450.67" stroke="#dc2626" stroke-width="2.00" stroke-linecap="round" />
<line x1="349.33" y1="450.67" x2="349.33" y2="400.00" stroke="#dc2626" stroke-width="2.00" stroke-linecap="round" />
<line x1="349.33" y1="400.00" x2="349.33" y2="349.33" stroke="#dc2626" stroke-width="2.00" stroke-linecap="round" />
<line x1="349.33" y1="349.33" x2="400.00" y2="349.33" stroke="#dc2626" stroke-width="2.00" stroke-linecap="round" />
<line x1="400.00" y1="349.33" x2="450.67" y2="349.33" stroke="#dc2626" stroke-width="2.00" stroke-linecap="round" />
<line x1="450.67" y1="349.33" x2="450.67" y2="400.00" stroke="#dc2626" stroke-width="2.00" stroke-linecap="round" />
<line x1="450.67" y1="400.00" x2="450.67" y2="450.67" stroke="#dc2626" stroke-width="2.00" stroke-linecap="round" />
<line x1="450.67" y1="450.67" x2="429.80" y2="450.67" stroke="#dc2626" stroke-width="2.00" stroke-linecap="round" />
<line x1="429.80" y1="450.67" x2="400.00" y2="420.86" stroke="#dc2626" stroke-width="2.00" stroke-linecap="round" />
<line x1="400.00" y1="420.86" x2="379.14" y2="420.86" stroke="#dc2626" stroke-width="2.00" stroke-linecap="round" />
<line x1="379.14" y1="420.86" x2="379.14" y2="379.14" stroke="#dc2626" stroke-width="2.00" stroke-linecap="round" />
<line x1="379.14" y1="379.14" x2="420.86" y2="379.14" stroke="#dc2626" stroke-width="2.00" stroke-linecap="round" />
<line x1="420.86" y1="379.14" x2="420.86" y2="411.92" stroke="#dc2626" stroke-width="2.00" stroke-linecap="round" />
<circle cx="400.00" cy="748.71" r="5.00" fill="#10b981" fill-opacity="0.85" />
<text x="407.00" y="741.71" font-family="Segoe UI" font-size="10" fill="#10b981">supply.start</text>
<circle cx="420.86" cy="411.92" r="5.00" fill="#f59e0b" fill-opacity="0.85" />
<text x="427.86" y="404.92" font-family="Segoe UI" font-size="10" fill="#f59e0b">supply.end (center)</text>
<text x="20" y="24" font-family="Segoe UI" font-size="14" fill="#111827">square_5x5 — supply spiral</text>
<text x="20" y="42" font-family="Segoe UI" font-size="11" fill="#374151">Blue = ring traversal (length < d0/2), Red = potential step transitions (length >= d0/2)</text>
</svg>
