<svg xmlns="http://www.w3.org/2000/svg" viewBox="0 0 800 800">
<rect width="800" height="800" fill="#ffffff" />
<polygon points="34.62,34.62 619.23,34.62 619.23,765.38 34.62,765.38 " fill="none" stroke="#111827" stroke-width="2.50" />

<line x1="326.92" y1="718.62" x2="245.08" y2="718.62" stroke="#dc2626" stroke-width="2.00" stroke-linecap="round" />
<line x1="245.08" y1="718.62" x2="163.23" y2="718.62" stroke="#dc2626" stroke-width="2.00" stroke-linecap="round" />
<line x1="163.23" y1="718.62" x2="81.38" y2="718.62" stroke="#dc2626" stroke-width="2.00" stroke-linecap="round" />
<line x1="81.38" y1="718.62" x2="81.38" y2="612.41" stroke="#dc2626" stroke-width="2.00" stroke-linecap="round" />
<line x1="81.38" y1="612.41" x2="81.38" y2="506.21" stroke="#dc2626" stroke-width="2.00" stroke-linecap="round" />
<line x1="81.38" y1="506.21" x2="81.38" y2="400.00" stroke="#dc2626" stroke-width="2.00" stroke-linecap="round" />
<line x1="81.38" y1="400.00" x2="81.38" y2="293.79" stroke="#dc2626" stroke-width="2.00" stroke-linecap="round" />
<line x1="81.38" y1="293.79" x2="81.38" y2="187.59" stroke="#dc2626" stroke-width="2.00" stroke-linecap="round" />
<line x1="81.38" y1="187.59" x2="81.38" y2="81.38" stroke="#dc2626" stroke-width="2.00" stroke-linecap="round" />
<line x1="81.38" y1="81.38" x2="179.60" y2="81.38" stroke="#dc2626" stroke-width="2.00" stroke-linecap="round" />
<line x1="179.60" y1="81.38" x2="277.82" y2="81.38" stroke="#dc2626" stroke-width="2.00" stroke-linecap="round" />
<line x1="277.82" y1="81.38" x2="376.03" y2="81.38" stroke="#dc2626" stroke-width="2.00" stroke-linecap="round" />
<line x1="376.03" y1="81.38" x2="474.25" y2="81.38" stroke="#dc2626" stroke-width="2.00" stroke-linecap="round" />
<line x1="474.25" y1="81.38" x2="572.46" y2="81.38" stroke="#dc2626" stroke-width="2.00" stroke-linecap="round" />
<line x1="572.46" y1="81.38" x2="572.46" y2="187.59" stroke="#dc2626" stroke-width="2.00" stroke-linecap="round" />
<line x1="572.46" y1="187.59" x2="572.46" y2="293.79" stroke="#dc2626" stroke-width="2.00" stroke-linecap="round" />
<line x1="572.46" y1="293.79" x2="572.46" y2="400.00" stroke="#dc2626" stroke-width="2.00" stroke-linecap="round" />
<line x1="572.46" y1="400.00" x2="572.46" y2="506.21" stroke="#dc2626" stroke-width="2.00" stroke-linecap="round" />
<line x1="572.46" y1="506.21" x2="572.46" y2="612.41" stroke="#dc2626" stroke-width="2.00" stroke-linecap="round" />
<line x1="572.46" y1="612.41" x2="572.46" y2="718.62" stroke="#dc2626" stroke-width="2.00" stroke-linecap="round" />
<line x1="572.46" y1="718.62" x2="478.92" y2="718.62" stroke="#dc2626" stroke-width="2.00" stroke-linecap="round" />
<line x1="478.92" y1="718.62" x2="385.38" y2="718.62" stroke="#dc2626" stroke-width="2.00" stroke-linecap="round" />
<line x1="385.38" y1="718.62" x2="326.92" y2="660.15" stroke="#dc2626" stroke-width="2.00" stroke-linecap="round" />
<line x1="326.92" y1="660.15" x2="233.38" y2="660.15" stroke="#dc2626" stroke-width="2.00" stroke-linecap="round" />
<line x1="233.38" y1="660.15" x2="139.85" y2="660.15" stroke="#dc2626" stroke-width="2.00" stroke-linecap="round" />
<line x1="139.85" y1="660.15" x2="139.85" y2="556.09" stroke="#dc2626" stroke-width="2.00" stroke-linecap="round" />
<line x1="139.85" y1="556.09" x2="139.85" y2="452.03" stroke="#dc2626" stroke-width="2.00" stroke-linecap="round" />
<line x1="139.85" y1="452.03" x2="139.85" y2="347.97" stroke="#dc2626" stroke-width="2.00" stroke-linecap="round" />
<line x1="139.85" y1="347.97" x2="139.85" y2="243.91" stroke="#dc2626" stroke-width="2.00" stroke-linecap="round" />
<line x1="139.85" y1="243.91" x2="139.85" y2="139.85" stroke="#dc2626" stroke-width="2.00" stroke-linecap="round" />
<line x1="139.85" y1="139.85" x2="233.38" y2="139.85" stroke="#dc2626" stroke-width="2.00" stroke-linecap="round" />
<line x1="233.38" y1="139.85" x2="326.92" y2="139.85" stroke="#dc2626" stroke-width="2.00" stroke-linecap="round" />
<line x1="326.92" y1="139.85" x2="420.46" y2="139.85" stroke="#dc2626" stroke-width="2.00" stroke-linecap="round" />
<line x1="420.46" y1="139.85" x2="514.00" y2="139.85" stroke="#dc2626" stroke-width="2.00" stroke-linecap="round" />
<line x1="514.00" y1="139.85" x2="514.00" y2="243.91" stroke="#dc2626" stroke-width="2.00" stroke-linecap="round" />
<line x1="514.00" y1="243.91" x2="514.00" y2="347.97" stroke="#dc2626" stroke-width="2.00" stroke-linecap="round" />
<line x1="514.00" y1="347.97" x2="514.00" y2="452.03" stroke="#dc2626" stroke-width="2.00" stroke-linecap="round" />
<line x1="514.00" y1="452.03" x2="514.00" y2="556.09" stroke="#dc2626" stroke-width="2.00" stroke-linecap="round" />
<line x1="514.00" y1="556.09" x2="514.00" y2="660.15" stroke="#dc2626" stroke-width="2.00" stroke-linecap="round" />
<line x1="514.00" y1="660.15" x2="449.69" y2="660.15" stroke="#dc2626" stroke-width="2.00" stroke-linecap="round" />
<line x1="449.69" y1="660.15" x2="385.38" y2="660.15" stroke="#dc2626" stroke-width="2.00" stroke-linecap="round" />
<line x1="385.38" y1="660.15" x2="326.92" y2="601.69" stroke="#dc2626" stroke-width="2.00" stroke-linecap="round" />
<line x1="326.92" y1="601.69" x2="262.62" y2="601.69" stroke="#dc2626" stroke-width="2.00" stroke-linecap="round" />
<line x1="262.62" y1="601.69" x2="198.31" y2="601.69" stroke="#dc2626" stroke-width="2.00" stroke-linecap="round" />
<line x1="198.31" y1="601.69" x2="198.31" y2="500.85" stroke="#dc2626" stroke-width="2.00" stroke-linecap="round" />
<line x1="198.31" y1="500.85" x2="198.31" y2="400.00" stroke="#dc2626" stroke-width="2.00" stroke-linecap="round" />
<line x1="198.31" y1="400.00" x2="198.31" y2="299.15" stroke="#dc2626" stroke-width="2.00" stroke-linecap="round" />
<line x1="198.31" y1="299.15" x2="198.31" y2="198.31" stroke="#dc2626" stroke-width="2.00" stroke-linecap="round" />
<line x1="198.31" y1="198.31" x2="284.05" y2="198.31" stroke="#dc2626" stroke-width="2.00" stroke-linecap="round" />
<line x1="284.05" y1="198.31" x2="369.79" y2="198.31" stroke="#dc2626" stroke-width="2.00" stroke-linecap="round" />
<line x1="369.79" y1="198.31" x2="455.54" y2="198.31" stroke="#dc2626" stroke-width="2.00" stroke-linecap="round" />
<line x1="455.54" y1="198.31" x2="455.54" y2="299.15" stroke="#dc2626" stroke-width="2.00" stroke-linecap="round" />
<line x1="455.54" y1="299.15" x2="455.54" y2="400.00" stroke="#dc2626" stroke-width="2.00" stroke-linecap="round" />
<line x1="455.54" y1="400.00" x2="455.54" y2="500.85" stroke="#dc2626" stroke-width="2.00" stroke-linecap="round" />
<line x1="455.54" y1="500.85" x2="455.54" y2="601.69" stroke="#dc2626" stroke-width="2.00" stroke-linecap="round" />
<line x1="455.54" y1="601.69" x2="385.38" y2="601.69" stroke="#dc2626" stroke-width="2.00" stroke-linecap="round" />
<line x1="385.38" y1="601.69" x2="326.92" y2="543.23" stroke="#dc2626" stroke-width="2.00" stroke-linecap="round" />
<line x1="326.92" y1="543.23" x2="256.77" y2="543.23" stroke="#dc2626" stroke-width="2.00" stroke-linecap="round" />
<line x1="256.77" y1="543.23" x2="256.77" y2="447.74" stroke="#dc2626" stroke-width="2.00" stroke-linecap="round" />
<line x1="256.77" y1="447.74" x2="256.77" y2="352.26" stroke="#dc2626" stroke-width="2.00" stroke-linecap="round" />
<line x1="256.77" y1="352.26" x2="256.77" y2="256.77" stroke="#dc2626" stroke-width="2.00" stroke-linecap="round" />
<line x1="256.77" y1="256.77" x2="326.92" y2="256.77" stroke="#dc2626" stroke-width="2.00" stroke-linecap="round" />
<line x1="326.92" y1="256.77" x2="397.08" y2="256.77" stroke="#dc2626" stroke-width="2.00" stroke-linecap="round" />
<line x1="397.08" y1="256.77" x2="397.08" y2="352.26" stroke="#dc2626" stroke-width="2.00" stroke-linecap="round" />
<line x1="397.08" y1="352.26" x2="397.08" y2="447.74" stroke="#dc2626" stroke-width="2.00" stroke-linecap="round" />
<line x1="397.08" y1="447.74" x2="397.08" y2="543.23" stroke="#dc2626" stroke-width="2.00" stroke-linecap="round" />
<line x1="397.08" y1="543.23" x2="385.38" y2="543.23" stroke="#2563eb" stroke-width="2.00" stroke-linecap="round" />
<line x1="385.38" y1="543.23" x2="326.92" y2="484.77" stroke="#dc2626" stroke-width="2.00" stroke-linecap="round" />
<line x1="326.92" y1="484.77" x2="315.23" y2="484.77" stroke="#2563eb" stroke-width="2.00" stroke-linecap="round" />
<line x1="315.23" y1="484.77" x2="315.23" y2="400.00" stroke="#dc2626" stroke-width="2.00" stroke-linecap="round" />
<line x1="315.23" y1="400.00" x2="315.23" y2="315.23" stroke="#dc2626" stroke-width="2.00" stroke-linecap="round" />
<line x1="315.23" y1="315.23" x2="338.62" y2="315.23" stroke="#2563eb" stroke-width="2.00" stroke-linecap="round" />
<line x1="338.62" y1="315.23" x2="338.62" y2="376.62" stroke="#dc2626" stroke-width="2.00" stroke-linecap="round" />
<line x1="338.62" y1="376.62" x2="338.62" y2="438.00" stroke="#dc2626" stroke-width="2.00" stroke-linecap="round" />
<circle cx="326.92" cy="718.62" r="5.00" fill="#10b981" fill-opacity="0.85" />
<text x="333.92" y="711.62" font-family="Segoe UI" font-size="10" fill="#10b981">supply.start</text>
<circle cx="338.62" cy="438.00" r="5.00" fill="#f59e0b" fill-opacity="0.85" />
<text x="345.62" y="431.00" font-family="Segoe UI" font-size="10" fill="#f59e0b">supply.end (center)</text>
<text x="20" y="24" font-family="Segoe UI" font-size="14" fill="#111827">bathroom_2x2_5 — supply spiral</text>
<text x="20" y="42" font-family="Segoe UI" font-size="11" fill="#374151">Blue = ring traversal (length < d0/2), Red = potential step transitions (length >= d0/2)</text>
</svg>
