<svg xmlns="http://www.w3.org/2000/svg" viewBox="0 0 800 800">
<rect width="800" height="800" fill="#ffffff" />
<polygon points="43.75,43.75 400.00,43.75 400.00,400.00 756.25,400.00 756.25,756.25 43.75,756.25 " fill="none" stroke="#111827" stroke-width="2.0" />

<polygon points="62.75,737.25 62.75,62.75 381.00,62.75 381.00,419.00 737.25,419.00 737.25,737.25 " fill="none" stroke="#d1d5db" stroke-width="1.0" />

<polygon points="713.50,713.50 86.50,713.50 86.50,86.50 357.25,86.50 357.25,442.75 713.50,442.75 " fill="none" stroke="#d1d5db" stroke-width="1.0" />

<polygon points="689.75,689.75 110.25,689.75 110.25,110.25 333.50,110.25 333.50,466.50 689.75,466.50 " fill="none" stroke="#d1d5db" stroke-width="1.0" />

<polygon points="666.00,666.00 134.00,666.00 134.00,134.00 309.75,134.00 309.75,490.25 666.00,490.25 " fill="none" stroke="#d1d5db" stroke-width="1.0" />

<polygon points="642.25,642.25 157.75,642.25 157.75,157.75 286.00,157.75 286.00,514.00 642.25,514.00 " fill="none" stroke="#d1d5db" stroke-width="1.0" />

<polygon points="618.50,618.50 181.50,618.50 181.50,181.50 262.25,181.50 262.25,537.75 618.50,537.75 " fill="none" stroke="#d1d5db" stroke-width="1.0" />

<polygon points="594.75,594.75 205.25,594.75 205.25,205.25 238.50,205.25 238.50,561.50 594.75,561.50 " fill="none" stroke="#d1d5db" stroke-width="1.0" />

<line x1="395.98" y1="737.25" x2="354.33" y2="737.25" stroke="#ef4444" stroke-width="2" stroke-linecap="round" />
<line x1="354.33" y1="737.25" x2="312.67" y2="737.25" stroke="#ef4444" stroke-width="2" stroke-linecap="round" />
<line x1="312.67" y1="737.25" x2="271.02" y2="737.25" stroke="#ef4444" stroke-width="2" stroke-linecap="round" />
<line x1="271.02" y1="737.25" x2="229.36" y2="737.25" stroke="#ef4444" stroke-width="2" stroke-linecap="round" />
<line x1="229.36" y1="737.25" x2="187.71" y2="737.25" stroke="#ef4444" stroke-width="2" stroke-linecap="round" />
<line x1="187.71" y1="737.25" x2="146.06" y2="737.25" stroke="#ef4444" stroke-width="2" stroke-linecap="round" />
<line x1="146.06" y1="737.25" x2="104.40" y2="737.25" stroke="#ef4444" stroke-width="2" stroke-linecap="round" />
<line x1="104.40" y1="737.25" x2="62.75" y2="737.25" stroke="#ef4444" stroke-width="2" stroke-linecap="round" />
<line x1="62.75" y1="737.25" x2="62.75" y2="692.28" stroke="#ef4444" stroke-width="2" stroke-linecap="round" />
<line x1="62.75" y1="692.28" x2="62.75" y2="647.32" stroke="#ef4444" stroke-width="2" stroke-linecap="round" />
<line x1="62.75" y1="647.32" x2="62.75" y2="602.35" stroke="#ef4444" stroke-width="2" stroke-linecap="round" />
<line x1="62.75" y1="602.35" x2="62.75" y2="557.38" stroke="#ef4444" stroke-width="2" stroke-linecap="round" />
<line x1="62.75" y1="557.38" x2="62.75" y2="512.42" stroke="#ef4444" stroke-width="2" stroke-linecap="round" />
<line x1="62.75" y1="512.42" x2="62.75" y2="467.45" stroke="#ef4444" stroke-width="2" stroke-linecap="round" />
<line x1="62.75" y1="467.45" x2="62.75" y2="422.48" stroke="#ef4444" stroke-width="2" stroke-linecap="round" />
<line x1="62.75" y1="422.48" x2="62.75" y2="377.52" stroke="#ef4444" stroke-width="2" stroke-linecap="round" />
<line x1="62.75" y1="377.52" x2="62.75" y2="332.55" stroke="#ef4444" stroke-width="2" stroke-linecap="round" />
<line x1="62.75" y1="332.55" x2="62.75" y2="287.58" stroke="#ef4444" stroke-width="2" stroke-linecap="round" />
<line x1="62.75" y1="287.58" x2="62.75" y2="242.62" stroke="#ef4444" stroke-width="2" stroke-linecap="round" />
<line x1="62.75" y1="242.62" x2="62.75" y2="197.65" stroke="#ef4444" stroke-width="2" stroke-linecap="round" />
<line x1="62.75" y1="197.65" x2="62.75" y2="152.68" stroke="#ef4444" stroke-width="2" stroke-linecap="round" />
<line x1="62.75" y1="152.68" x2="62.75" y2="107.72" stroke="#ef4444" stroke-width="2" stroke-linecap="round" />
<line x1="62.75" y1="107.72" x2="62.75" y2="62.75" stroke="#ef4444" stroke-width="2" stroke-linecap="round" />
<line x1="62.75" y1="62.75" x2="108.21" y2="62.75" stroke="#ef4444" stroke-width="2" stroke-linecap="round" />
<line x1="108.21" y1="62.75" x2="153.68" y2="62.75" stroke="#ef4444" stroke-width="2" stroke-linecap="round" />
<line x1="153.68" y1="62.75" x2="199.14" y2="62.75" stroke="#ef4444" stroke-width="2" stroke-linecap="round" />
<line x1="199.14" y1="62.75" x2="244.61" y2="62.75" stroke="#ef4444" stroke-width="2" stroke-linecap="round" />
<line x1="244.61" y1="62.75" x2="290.07" y2="62.75" stroke="#ef4444" stroke-width="2" stroke-linecap="round" />
<line x1="290.07" y1="62.75" x2="335.54" y2="62.75" stroke="#ef4444" stroke-width="2" stroke-linecap="round" />
<line x1="335.54" y1="62.75" x2="381.00" y2="62.75" stroke="#ef4444" stroke-width="2" stroke-linecap="round" />
<line x1="381.00" y1="62.75" x2="381.00" y2="107.28" stroke="#ef4444" stroke-width="2" stroke-linecap="round" />
<line x1="381.00" y1="107.28" x2="381.00" y2="151.81" stroke="#ef4444" stroke-width="2" stroke-linecap="round" />
<line x1="381.00" y1="151.81" x2="381.00" y2="196.34" stroke="#ef4444" stroke-width="2" stroke-linecap="round" />
<line x1="381.00" y1="196.34" x2="381.00" y2="240.88" stroke="#ef4444" stroke-width="2" stroke-linecap="round" />
<line x1="381.00" y1="240.88" x2="381.00" y2="285.41" stroke="#ef4444" stroke-width="2" stroke-linecap="round" />
<line x1="381.00" y1="285.41" x2="381.00" y2="329.94" stroke="#ef4444" stroke-width="2" stroke-linecap="round" />
<line x1="381.00" y1="329.94" x2="381.00" y2="374.47" stroke="#ef4444" stroke-width="2" stroke-linecap="round" />
<line x1="381.00" y1="374.47" x2="381.00" y2="419.00" stroke="#ef4444" stroke-width="2" stroke-linecap="round" />
<line x1="381.00" y1="419.00" x2="425.53" y2="419.00" stroke="#ef4444" stroke-width="2" stroke-linecap="round" />
<line x1="425.53" y1="419.00" x2="470.06" y2="419.00" stroke="#ef4444" stroke-width="2" stroke-linecap="round" />
<line x1="470.06" y1="419.00" x2="514.59" y2="419.00" stroke="#ef4444" stroke-width="2" stroke-linecap="round" />
<line x1="514.59" y1="419.00" x2="559.12" y2="419.00" stroke="#ef4444" stroke-width="2" stroke-linecap="round" />
<line x1="559.12" y1="419.00" x2="603.66" y2="419.00" stroke="#ef4444" stroke-width="2" stroke-linecap="round" />
<line x1="603.66" y1="419.00" x2="648.19" y2="419.00" stroke="#ef4444" stroke-width="2" stroke-linecap="round" />
<line x1="648.19" y1="419.00" x2="692.72" y2="419.00" stroke="#ef4444" stroke-width="2" stroke-linecap="round" />
<line x1="692.72" y1="419.00" x2="737.25" y2="419.00" stroke="#ef4444" stroke-width="2" stroke-linecap="round" />
<line x1="737.25" y1="419.00" x2="737.25" y2="464.46" stroke="#ef4444" stroke-width="2" stroke-linecap="round" />
<line x1="737.25" y1="464.46" x2="737.25" y2="509.93" stroke="#ef4444" stroke-width="2" stroke-linecap="round" />
<line x1="737.25" y1="509.93" x2="737.25" y2="555.39" stroke="#ef4444" stroke-width="2" stroke-linecap="round" />
<line x1="737.25" y1="555.39" x2="737.25" y2="600.86" stroke="#ef4444" stroke-width="2" stroke-linecap="round" />
<line x1="737.25" y1="600.86" x2="737.25" y2="646.32" stroke="#ef4444" stroke-width="2" stroke-linecap="round" />
<line x1="737.25" y1="646.32" x2="737.25" y2="691.79" stroke="#ef4444" stroke-width="2" stroke-linecap="round" />
<line x1="737.25" y1="691.79" x2="737.25" y2="737.25" stroke="#ef4444" stroke-width="2" stroke-linecap="round" />
<line x1="737.25" y1="737.25" x2="691.89" y2="737.25" stroke="#ef4444" stroke-width="2" stroke-linecap="round" />
<line x1="691.89" y1="737.25" x2="646.53" y2="737.25" stroke="#ef4444" stroke-width="2" stroke-linecap="round" />
<line x1="646.53" y1="737.25" x2="601.17" y2="737.25" stroke="#ef4444" stroke-width="2" stroke-linecap="round" />
<line x1="601.17" y1="737.25" x2="555.81" y2="737.25" stroke="#ef4444" stroke-width="2" stroke-linecap="round" />
<line x1="555.81" y1="737.25" x2="510.45" y2="737.25" stroke="#ef4444" stroke-width="2" stroke-linecap="round" />
<line x1="510.45" y1="737.25" x2="465.09" y2="737.25" stroke="#ef4444" stroke-width="2" stroke-linecap="round" />
<line x1="465.09" y1="737.25" x2="419.73" y2="737.25" stroke="#ef4444" stroke-width="2" stroke-linecap="round" />
<line x1="419.73" y1="737.25" x2="391.25" y2="713.50" stroke="#ef4444" stroke-width="2" stroke-linecap="round" />
<line x1="391.25" y1="713.50" x2="347.71" y2="713.50" stroke="#ef4444" stroke-width="2" stroke-linecap="round" />
<line x1="347.71" y1="713.50" x2="304.18" y2="713.50" stroke="#ef4444" stroke-width="2" stroke-linecap="round" />
<line x1="304.18" y1="713.50" x2="260.64" y2="713.50" stroke="#ef4444" stroke-width="2" stroke-linecap="round" />
<line x1="260.64" y1="713.50" x2="217.11" y2="713.50" stroke="#ef4444" stroke-width="2" stroke-linecap="round" />
<line x1="217.11" y1="713.50" x2="173.57" y2="713.50" stroke="#ef4444" stroke-width="2" stroke-linecap="round" />
<line x1="173.57" y1="713.50" x2="130.04" y2="713.50" stroke="#ef4444" stroke-width="2" stroke-linecap="round" />
<line x1="130.04" y1="713.50" x2="86.50" y2="713.50" stroke="#ef4444" stroke-width="2" stroke-linecap="round" />
<line x1="86.50" y1="713.50" x2="86.50" y2="668.71" stroke="#ef4444" stroke-width="2" stroke-linecap="round" />
<line x1="86.50" y1="668.71" x2="86.50" y2="623.93" stroke="#ef4444" stroke-width="2" stroke-linecap="round" />
<line x1="86.50" y1="623.93" x2="86.50" y2="579.14" stroke="#ef4444" stroke-width="2" stroke-linecap="round" />
<line x1="86.50" y1="579.14" x2="86.50" y2="534.36" stroke="#ef4444" stroke-width="2" stroke-linecap="round" />
<line x1="86.50" y1="534.36" x2="86.50" y2="489.57" stroke="#ef4444" stroke-width="2" stroke-linecap="round" />
<line x1="86.50" y1="489.57" x2="86.50" y2="444.79" stroke="#ef4444" stroke-width="2" stroke-linecap="round" />
<line x1="86.50" y1="444.79" x2="86.50" y2="400.00" stroke="#ef4444" stroke-width="2" stroke-linecap="round" />
<line x1="86.50" y1="400.00" x2="86.50" y2="355.21" stroke="#ef4444" stroke-width="2" stroke-linecap="round" />
<line x1="86.50" y1="355.21" x2="86.50" y2="310.43" stroke="#ef4444" stroke-width="2" stroke-linecap="round" />
<line x1="86.50" y1="310.43" x2="86.50" y2="265.64" stroke="#ef4444" stroke-width="2" stroke-linecap="round" />
<line x1="86.50" y1="265.64" x2="86.50" y2="220.86" stroke="#ef4444" stroke-width="2" stroke-linecap="round" />
<line x1="86.50" y1="220.86" x2="86.50" y2="176.07" stroke="#ef4444" stroke-width="2" stroke-linecap="round" />
<line x1="86.50" y1="176.07" x2="86.50" y2="131.29" stroke="#ef4444" stroke-width="2" stroke-linecap="round" />
<line x1="86.50" y1="131.29" x2="86.50" y2="86.50" stroke="#ef4444" stroke-width="2" stroke-linecap="round" />
<line x1="86.50" y1="86.50" x2="131.62" y2="86.50" stroke="#ef4444" stroke-width="2" stroke-linecap="round" />
<line x1="131.62" y1="86.50" x2="176.75" y2="86.50" stroke="#ef4444" stroke-width="2" stroke-linecap="round" />
<line x1="176.75" y1="86.50" x2="221.88" y2="86.50" stroke="#ef4444" stroke-width="2" stroke-linecap="round" />
<line x1="221.88" y1="86.50" x2="267.00" y2="86.50" stroke="#ef4444" stroke-width="2" stroke-linecap="round" />
<line x1="267.00" y1="86.50" x2="312.12" y2="86.50" stroke="#ef4444" stroke-width="2" stroke-linecap="round" />
<line x1="312.12" y1="86.50" x2="357.25" y2="86.50" stroke="#ef4444" stroke-width="2" stroke-linecap="round" />
<line x1="357.25" y1="86.50" x2="357.25" y2="131.03" stroke="#ef4444" stroke-width="2" stroke-linecap="round" />
<line x1="357.25" y1="131.03" x2="357.25" y2="175.56" stroke="#ef4444" stroke-width="2" stroke-linecap="round" />
<line x1="357.25" y1="175.56" x2="357.25" y2="220.09" stroke="#ef4444" stroke-width="2" stroke-linecap="round" />
<line x1="357.25" y1="220.09" x2="357.25" y2="264.62" stroke="#ef4444" stroke-width="2" stroke-linecap="round" />
<line x1="357.25" y1="264.62" x2="357.25" y2="309.16" stroke="#ef4444" stroke-width="2" stroke-linecap="round" />
<line x1="357.25" y1="309.16" x2="357.25" y2="353.69" stroke="#ef4444" stroke-width="2" stroke-linecap="round" />
<line x1="357.25" y1="353.69" x2="357.25" y2="398.22" stroke="#ef4444" stroke-width="2" stroke-linecap="round" />
<line x1="357.25" y1="398.22" x2="357.25" y2="442.75" stroke="#ef4444" stroke-width="2" stroke-linecap="round" />
<line x1="357.25" y1="442.75" x2="401.78" y2="442.75" stroke="#ef4444" stroke-width="2" stroke-linecap="round" />
<line x1="401.78" y1="442.75" x2="446.31" y2="442.75" stroke="#ef4444" stroke-width="2" stroke-linecap="round" />
<line x1="446.31" y1="442.75" x2="490.84" y2="442.75" stroke="#ef4444" stroke-width="2" stroke-linecap="round" />
<line x1="490.84" y1="442.75" x2="535.38" y2="442.75" stroke="#ef4444" stroke-width="2" stroke-linecap="round" />
<line x1="535.38" y1="442.75" x2="579.91" y2="442.75" stroke="#ef4444" stroke-width="2" stroke-linecap="round" />
<line x1="579.91" y1="442.75" x2="624.44" y2="442.75" stroke="#ef4444" stroke-width="2" stroke-linecap="round" />
<line x1="624.44" y1="442.75" x2="668.97" y2="442.75" stroke="#ef4444" stroke-width="2" stroke-linecap="round" />
<line x1="668.97" y1="442.75" x2="713.50" y2="442.75" stroke="#ef4444" stroke-width="2" stroke-linecap="round" />
<line x1="713.50" y1="442.75" x2="713.50" y2="487.88" stroke="#ef4444" stroke-width="2" stroke-linecap="round" />
<line x1="713.50" y1="487.88" x2="713.50" y2="533.00" stroke="#ef4444" stroke-width="2" stroke-linecap="round" />
<line x1="713.50" y1="533.00" x2="713.50" y2="578.12" stroke="#ef4444" stroke-width="2" stroke-linecap="round" />
<line x1="713.50" y1="578.12" x2="713.50" y2="623.25" stroke="#ef4444" stroke-width="2" stroke-linecap="round" />
<line x1="713.50" y1="623.25" x2="713.50" y2="668.38" stroke="#ef4444" stroke-width="2" stroke-linecap="round" />
<line x1="713.50" y1="668.38" x2="713.50" y2="713.50" stroke="#ef4444" stroke-width="2" stroke-linecap="round" />
<line x1="713.50" y1="713.50" x2="670.86" y2="713.50" stroke="#ef4444" stroke-width="2" stroke-linecap="round" />
<line x1="670.86" y1="713.50" x2="628.21" y2="713.50" stroke="#ef4444" stroke-width="2" stroke-linecap="round" />
<line x1="628.21" y1="713.50" x2="585.57" y2="713.50" stroke="#ef4444" stroke-width="2" stroke-linecap="round" />
<line x1="585.57" y1="713.50" x2="542.93" y2="713.50" stroke="#ef4444" stroke-width="2" stroke-linecap="round" />
<line x1="542.93" y1="713.50" x2="500.28" y2="713.50" stroke="#ef4444" stroke-width="2" stroke-linecap="round" />
<line x1="500.28" y1="713.50" x2="457.64" y2="713.50" stroke="#ef4444" stroke-width="2" stroke-linecap="round" />
<line x1="457.64" y1="713.50" x2="415.00" y2="713.50" stroke="#ef4444" stroke-width="2" stroke-linecap="round" />
<line x1="415.00" y1="713.50" x2="386.52" y2="689.75" stroke="#ef4444" stroke-width="2" stroke-linecap="round" />
<line x1="386.52" y1="689.75" x2="340.47" y2="689.75" stroke="#ef4444" stroke-width="2" stroke-linecap="round" />
<line x1="340.47" y1="689.75" x2="294.43" y2="689.75" stroke="#ef4444" stroke-width="2" stroke-linecap="round" />
<line x1="294.43" y1="689.75" x2="248.38" y2="689.75" stroke="#ef4444" stroke-width="2" stroke-linecap="round" />
<line x1="248.38" y1="689.75" x2="202.34" y2="689.75" stroke="#ef4444" stroke-width="2" stroke-linecap="round" />
<line x1="202.34" y1="689.75" x2="156.29" y2="689.75" stroke="#ef4444" stroke-width="2" stroke-linecap="round" />
<line x1="156.29" y1="689.75" x2="110.25" y2="689.75" stroke="#ef4444" stroke-width="2" stroke-linecap="round" />
<line x1="110.25" y1="689.75" x2="110.25" y2="645.17" stroke="#ef4444" stroke-width="2" stroke-linecap="round" />
<line x1="110.25" y1="645.17" x2="110.25" y2="600.60" stroke="#ef4444" stroke-width="2" stroke-linecap="round" />
<line x1="110.25" y1="600.60" x2="110.25" y2="556.02" stroke="#ef4444" stroke-width="2" stroke-linecap="round" />
<line x1="110.25" y1="556.02" x2="110.25" y2="511.44" stroke="#ef4444" stroke-width="2" stroke-linecap="round" />
<line x1="110.25" y1="511.44" x2="110.25" y2="466.87" stroke="#ef4444" stroke-width="2" stroke-linecap="round" />
<line x1="110.25" y1="466.87" x2="110.25" y2="422.29" stroke="#ef4444" stroke-width="2" stroke-linecap="round" />
<line x1="110.25" y1="422.29" x2="110.25" y2="377.71" stroke="#ef4444" stroke-width="2" stroke-linecap="round" />
<line x1="110.25" y1="377.71" x2="110.25" y2="333.13" stroke="#ef4444" stroke-width="2" stroke-linecap="round" />
<line x1="110.25" y1="333.13" x2="110.25" y2="288.56" stroke="#ef4444" stroke-width="2" stroke-linecap="round" />
<line x1="110.25" y1="288.56" x2="110.25" y2="243.98" stroke="#ef4444" stroke-width="2" stroke-linecap="round" />
<line x1="110.25" y1="243.98" x2="110.25" y2="199.40" stroke="#ef4444" stroke-width="2" stroke-linecap="round" />
<line x1="110.25" y1="199.40" x2="110.25" y2="154.83" stroke="#ef4444" stroke-width="2" stroke-linecap="round" />
<line x1="110.25" y1="154.83" x2="110.25" y2="110.25" stroke="#ef4444" stroke-width="2" stroke-linecap="round" />
<line x1="110.25" y1="110.25" x2="154.90" y2="110.25" stroke="#ef4444" stroke-width="2" stroke-linecap="round" />
<line x1="154.90" y1="110.25" x2="199.55" y2="110.25" stroke="#ef4444" stroke-width="2" stroke-linecap="round" />
<line x1="199.55" y1="110.25" x2="244.20" y2="110.25" stroke="#ef4444" stroke-width="2" stroke-linecap="round" />
<line x1="244.20" y1="110.25" x2="288.85" y2="110.25" stroke="#ef4444" stroke-width="2" stroke-linecap="round" />
<line x1="288.85" y1="110.25" x2="333.50" y2="110.25" stroke="#ef4444" stroke-width="2" stroke-linecap="round" />
<line x1="333.50" y1="110.25" x2="333.50" y2="154.78" stroke="#ef4444" stroke-width="2" stroke-linecap="round" />
<line x1="333.50" y1="154.78" x2="333.50" y2="199.31" stroke="#ef4444" stroke-width="2" stroke-linecap="round" />
<line x1="333.50" y1="199.31" x2="333.50" y2="243.84" stroke="#ef4444" stroke-width="2" stroke-linecap="round" />
<line x1="333.50" y1="243.84" x2="333.50" y2="288.38" stroke="#ef4444" stroke-width="2" stroke-linecap="round" />
<line x1="333.50" y1="288.38" x2="333.50" y2="332.91" stroke="#ef4444" stroke-width="2" stroke-linecap="round" />
<line x1="333.50" y1="332.91" x2="333.50" y2="377.44" stroke="#ef4444" stroke-width="2" stroke-linecap="round" />
<line x1="333.50" y1="377.44" x2="333.50" y2="421.97" stroke="#ef4444" stroke-width="2" stroke-linecap="round" />
<line x1="333.50" y1="421.97" x2="333.50" y2="466.50" stroke="#ef4444" stroke-width="2" stroke-linecap="round" />
<line x1="333.50" y1="466.50" x2="378.03" y2="466.50" stroke="#ef4444" stroke-width="2" stroke-linecap="round" />
<line x1="378.03" y1="466.50" x2="422.56" y2="466.50" stroke="#ef4444" stroke-width="2" stroke-linecap="round" />
<line x1="422.56" y1="466.50" x2="467.09" y2="466.50" stroke="#ef4444" stroke-width="2" stroke-linecap="round" />
<line x1="467.09" y1="466.50" x2="511.62" y2="466.50" stroke="#ef4444" stroke-width="2" stroke-linecap="round" />
<line x1="511.62" y1="466.50" x2="556.16" y2="466.50" stroke="#ef4444" stroke-width="2" stroke-linecap="round" />
<line x1="556.16" y1="466.50" x2="600.69" y2="466.50" stroke="#ef4444" stroke-width="2" stroke-linecap="round" />
<line x1="600.69" y1="466.50" x2="645.22" y2="466.50" stroke="#ef4444" stroke-width="2" stroke-linecap="round" />
<line x1="645.22" y1="466.50" x2="689.75" y2="466.50" stroke="#ef4444" stroke-width="2" stroke-linecap="round" />
<line x1="689.75" y1="466.50" x2="689.75" y2="511.15" stroke="#ef4444" stroke-width="2" stroke-linecap="round" />
<line x1="689.75" y1="511.15" x2="689.75" y2="555.80" stroke="#ef4444" stroke-width="2" stroke-linecap="round" />
<line x1="689.75" y1="555.80" x2="689.75" y2="600.45" stroke="#ef4444" stroke-width="2" stroke-linecap="round" />
<line x1="689.75" y1="600.45" x2="689.75" y2="645.10" stroke="#ef4444" stroke-width="2" stroke-linecap="round" />
<line x1="689.75" y1="645.10" x2="689.75" y2="689.75" stroke="#ef4444" stroke-width="2" stroke-linecap="round" />
<line x1="689.75" y1="689.75" x2="643.17" y2="689.75" stroke="#ef4444" stroke-width="2" stroke-linecap="round" />
<line x1="643.17" y1="689.75" x2="596.59" y2="689.75" stroke="#ef4444" stroke-width="2" stroke-linecap="round" />
<line x1="596.59" y1="689.75" x2="550.01" y2="689.75" stroke="#ef4444" stroke-width="2" stroke-linecap="round" />
<line x1="550.01" y1="689.75" x2="503.43" y2="689.75" stroke="#ef4444" stroke-width="2" stroke-linecap="round" />
<line x1="503.43" y1="689.75" x2="456.85" y2="689.75" stroke="#ef4444" stroke-width="2" stroke-linecap="round" />
<line x1="456.85" y1="689.75" x2="410.27" y2="689.75" stroke="#ef4444" stroke-width="2" stroke-linecap="round" />
<line x1="410.27" y1="689.75" x2="381.79" y2="666.00" stroke="#ef4444" stroke-width="2" stroke-linecap="round" />
<line x1="381.79" y1="666.00" x2="340.49" y2="666.00" stroke="#ef4444" stroke-width="2" stroke-linecap="round" />
<line x1="340.49" y1="666.00" x2="299.19" y2="666.00" stroke="#ef4444" stroke-width="2" stroke-linecap="round" />
<line x1="299.19" y1="666.00" x2="257.89" y2="666.00" stroke="#ef4444" stroke-width="2" stroke-linecap="round" />
<line x1="257.89" y1="666.00" x2="216.60" y2="666.00" stroke="#ef4444" stroke-width="2" stroke-linecap="round" />
<line x1="216.60" y1="666.00" x2="175.30" y2="666.00" stroke="#ef4444" stroke-width="2" stroke-linecap="round" />
<line x1="175.30" y1="666.00" x2="134.00" y2="666.00" stroke="#ef4444" stroke-width="2" stroke-linecap="round" />
<line x1="134.00" y1="666.00" x2="134.00" y2="621.67" stroke="#ef4444" stroke-width="2" stroke-linecap="round" />
<line x1="134.00" y1="621.67" x2="134.00" y2="577.33" stroke="#ef4444" stroke-width="2" stroke-linecap="round" />
<line x1="134.00" y1="577.33" x2="134.00" y2="533.00" stroke="#ef4444" stroke-width="2" stroke-linecap="round" />
<line x1="134.00" y1="533.00" x2="134.00" y2="488.67" stroke="#ef4444" stroke-width="2" stroke-linecap="round" />
<line x1="134.00" y1="488.67" x2="134.00" y2="444.33" stroke="#ef4444" stroke-width="2" stroke-linecap="round" />
<line x1="134.00" y1="444.33" x2="134.00" y2="400.00" stroke="#ef4444" stroke-width="2" stroke-linecap="round" />
<line x1="134.00" y1="400.00" x2="134.00" y2="355.67" stroke="#ef4444" stroke-width="2" stroke-linecap="round" />
<line x1="134.00" y1="355.67" x2="134.00" y2="311.33" stroke="#ef4444" stroke-width="2" stroke-linecap="round" />
<line x1="134.00" y1="311.33" x2="134.00" y2="267.00" stroke="#ef4444" stroke-width="2" stroke-linecap="round" />
<line x1="134.00" y1="267.00" x2="134.00" y2="222.67" stroke="#ef4444" stroke-width="2" stroke-linecap="round" />
<line x1="134.00" y1="222.67" x2="134.00" y2="178.33" stroke="#ef4444" stroke-width="2" stroke-linecap="round" />
<line x1="134.00" y1="178.33" x2="134.00" y2="134.00" stroke="#ef4444" stroke-width="2" stroke-linecap="round" />
<line x1="134.00" y1="134.00" x2="177.94" y2="134.00" stroke="#ef4444" stroke-width="2" stroke-linecap="round" />
<line x1="177.94" y1="134.00" x2="221.88" y2="134.00" stroke="#ef4444" stroke-width="2" stroke-linecap="round" />
<line x1="221.88" y1="134.00" x2="265.81" y2="134.00" stroke="#ef4444" stroke-width="2" stroke-linecap="round" />
<line x1="265.81" y1="134.00" x2="309.75" y2="134.00" stroke="#ef4444" stroke-width="2" stroke-linecap="round" />
<line x1="309.75" y1="134.00" x2="309.75" y2="178.53" stroke="#ef4444" stroke-width="2" stroke-linecap="round" />
<line x1="309.75" y1="178.53" x2="309.75" y2="223.06" stroke="#ef4444" stroke-width="2" stroke-linecap="round" />
<line x1="309.75" y1="223.06" x2="309.75" y2="267.59" stroke="#ef4444" stroke-width="2" stroke-linecap="round" />
<line x1="309.75" y1="267.59" x2="309.75" y2="312.12" stroke="#ef4444" stroke-width="2" stroke-linecap="round" />
<line x1="309.75" y1="312.12" x2="309.75" y2="356.66" stroke="#ef4444" stroke-width="2" stroke-linecap="round" />
<line x1="309.75" y1="356.66" x2="309.75" y2="401.19" stroke="#ef4444" stroke-width="2" stroke-linecap="round" />
<line x1="309.75" y1="401.19" x2="309.75" y2="445.72" stroke="#ef4444" stroke-width="2" stroke-linecap="round" />
<line x1="309.75" y1="445.72" x2="309.75" y2="490.25" stroke="#ef4444" stroke-width="2" stroke-linecap="round" />
<line x1="309.75" y1="490.25" x2="354.28" y2="490.25" stroke="#ef4444" stroke-width="2" stroke-linecap="round" />
<line x1="354.28" y1="490.25" x2="398.81" y2="490.25" stroke="#ef4444" stroke-width="2" stroke-linecap="round" />
<line x1="398.81" y1="490.25" x2="443.34" y2="490.25" stroke="#ef4444" stroke-width="2" stroke-linecap="round" />
<line x1="443.34" y1="490.25" x2="487.88" y2="490.25" stroke="#ef4444" stroke-width="2" stroke-linecap="round" />
<line x1="487.88" y1="490.25" x2="532.41" y2="490.25" stroke="#ef4444" stroke-width="2" stroke-linecap="round" />
<line x1="532.41" y1="490.25" x2="576.94" y2="490.25" stroke="#ef4444" stroke-width="2" stroke-linecap="round" />
<line x1="576.94" y1="490.25" x2="621.47" y2="490.25" stroke="#ef4444" stroke-width="2" stroke-linecap="round" />
<line x1="621.47" y1="490.25" x2="666.00" y2="490.25" stroke="#ef4444" stroke-width="2" stroke-linecap="round" />
<line x1="666.00" y1="490.25" x2="666.00" y2="534.19" stroke="#ef4444" stroke-width="2" stroke-linecap="round" />
<line x1="666.00" y1="534.19" x2="666.00" y2="578.12" stroke="#ef4444" stroke-width="2" stroke-linecap="round" />
<line x1="666.00" y1="578.12" x2="666.00" y2="622.06" stroke="#ef4444" stroke-width="2" stroke-linecap="round" />
<line x1="666.00" y1="622.06" x2="666.00" y2="666.00" stroke="#ef4444" stroke-width="2" stroke-linecap="round" />
<line x1="666.00" y1="666.00" x2="622.59" y2="666.00" stroke="#ef4444" stroke-width="2" stroke-linecap="round" />
<line x1="622.59" y1="666.00" x2="579.18" y2="666.00" stroke="#ef4444" stroke-width="2" stroke-linecap="round" />
<line x1="579.18" y1="666.00" x2="535.77" y2="666.00" stroke="#ef4444" stroke-width="2" stroke-linecap="round" />
<line x1="535.77" y1="666.00" x2="492.36" y2="666.00" stroke="#ef4444" stroke-width="2" stroke-linecap="round" />
<line x1="492.36" y1="666.00" x2="448.95" y2="666.00" stroke="#ef4444" stroke-width="2" stroke-linecap="round" />
<line x1="448.95" y1="666.00" x2="405.54" y2="666.00" stroke="#ef4444" stroke-width="2" stroke-linecap="round" />
<line x1="405.54" y1="666.00" x2="377.05" y2="642.25" stroke="#ef4444" stroke-width="2" stroke-linecap="round" />
<line x1="377.05" y1="642.25" x2="333.19" y2="642.25" stroke="#ef4444" stroke-width="2" stroke-linecap="round" />
<line x1="333.19" y1="642.25" x2="289.33" y2="642.25" stroke="#ef4444" stroke-width="2" stroke-linecap="round" />
<line x1="289.33" y1="642.25" x2="245.47" y2="642.25" stroke="#ef4444" stroke-width="2" stroke-linecap="round" />
<line x1="245.47" y1="642.25" x2="201.61" y2="642.25" stroke="#ef4444" stroke-width="2" stroke-linecap="round" />
<line x1="201.61" y1="642.25" x2="157.75" y2="642.25" stroke="#ef4444" stroke-width="2" stroke-linecap="round" />
<line x1="157.75" y1="642.25" x2="157.75" y2="598.20" stroke="#ef4444" stroke-width="2" stroke-linecap="round" />
<line x1="157.75" y1="598.20" x2="157.75" y2="554.16" stroke="#ef4444" stroke-width="2" stroke-linecap="round" />
<line x1="157.75" y1="554.16" x2="157.75" y2="510.11" stroke="#ef4444" stroke-width="2" stroke-linecap="round" />
<line x1="157.75" y1="510.11" x2="157.75" y2="466.07" stroke="#ef4444" stroke-width="2" stroke-linecap="round" />
<line x1="157.75" y1="466.07" x2="157.75" y2="422.02" stroke="#ef4444" stroke-width="2" stroke-linecap="round" />
<line x1="157.75" y1="422.02" x2="157.75" y2="377.98" stroke="#ef4444" stroke-width="2" stroke-linecap="round" />
<line x1="157.75" y1="377.98" x2="157.75" y2="333.93" stroke="#ef4444" stroke-width="2" stroke-linecap="round" />
<line x1="157.75" y1="333.93" x2="157.75" y2="289.89" stroke="#ef4444" stroke-width="2" stroke-linecap="round" />
<line x1="157.75" y1="289.89" x2="157.75" y2="245.84" stroke="#ef4444" stroke-width="2" stroke-linecap="round" />
<line x1="157.75" y1="245.84" x2="157.75" y2="201.80" stroke="#ef4444" stroke-width="2" stroke-linecap="round" />
<line x1="157.75" y1="201.80" x2="157.75" y2="157.75" stroke="#ef4444" stroke-width="2" stroke-linecap="round" />
<line x1="157.75" y1="157.75" x2="200.50" y2="157.75" stroke="#ef4444" stroke-width="2" stroke-linecap="round" />
<line x1="200.50" y1="157.75" x2="243.25" y2="157.75" stroke="#ef4444" stroke-width="2" stroke-linecap="round" />
<line x1="243.25" y1="157.75" x2="286.00" y2="157.75" stroke="#ef4444" stroke-width="2" stroke-linecap="round" />
<line x1="286.00" y1="157.75" x2="286.00" y2="202.28" stroke="#ef4444" stroke-width="2" stroke-linecap="round" />
<line x1="286.00" y1="202.28" x2="286.00" y2="246.81" stroke="#ef4444" stroke-width="2" stroke-linecap="round" />
<line x1="286.00" y1="246.81" x2="286.00" y2="291.34" stroke="#ef4444" stroke-width="2" stroke-linecap="round" />
<line x1="286.00" y1="291.34" x2="286.00" y2="335.88" stroke="#ef4444" stroke-width="2" stroke-linecap="round" />
<line x1="286.00" y1="335.88" x2="286.00" y2="380.41" stroke="#ef4444" stroke-width="2" stroke-linecap="round" />
<line x1="286.00" y1="380.41" x2="286.00" y2="424.94" stroke="#ef4444" stroke-width="2" stroke-linecap="round" />
<line x1="286.00" y1="424.94" x2="286.00" y2="469.47" stroke="#ef4444" stroke-width="2" stroke-linecap="round" />
<line x1="286.00" y1="469.47" x2="286.00" y2="514.00" stroke="#ef4444" stroke-width="2" stroke-linecap="round" />
<line x1="286.00" y1="514.00" x2="330.53" y2="514.00" stroke="#ef4444" stroke-width="2" stroke-linecap="round" />
<line x1="330.53" y1="514.00" x2="375.06" y2="514.00" stroke="#ef4444" stroke-width="2" stroke-linecap="round" />
<line x1="375.06" y1="514.00" x2="419.59" y2="514.00" stroke="#ef4444" stroke-width="2" stroke-linecap="round" />
<line x1="419.59" y1="514.00" x2="464.12" y2="514.00" stroke="#ef4444" stroke-width="2" stroke-linecap="round" />
<line x1="464.12" y1="514.00" x2="508.66" y2="514.00" stroke="#ef4444" stroke-width="2" stroke-linecap="round" />
<line x1="508.66" y1="514.00" x2="553.19" y2="514.00" stroke="#ef4444" stroke-width="2" stroke-linecap="round" />
<line x1="553.19" y1="514.00" x2="597.72" y2="514.00" stroke="#ef4444" stroke-width="2" stroke-linecap="round" />
<line x1="597.72" y1="514.00" x2="642.25" y2="514.00" stroke="#ef4444" stroke-width="2" stroke-linecap="round" />
<line x1="642.25" y1="514.00" x2="642.25" y2="556.75" stroke="#ef4444" stroke-width="2" stroke-linecap="round" />
<line x1="642.25" y1="556.75" x2="642.25" y2="599.50" stroke="#ef4444" stroke-width="2" stroke-linecap="round" />
<line x1="642.25" y1="599.50" x2="642.25" y2="642.25" stroke="#ef4444" stroke-width="2" stroke-linecap="round" />
<line x1="642.25" y1="642.25" x2="602.01" y2="642.25" stroke="#ef4444" stroke-width="2" stroke-linecap="round" />
<line x1="602.01" y1="642.25" x2="561.77" y2="642.25" stroke="#ef4444" stroke-width="2" stroke-linecap="round" />
<line x1="561.77" y1="642.25" x2="521.53" y2="642.25" stroke="#ef4444" stroke-width="2" stroke-linecap="round" />
<line x1="521.53" y1="642.25" x2="481.29" y2="642.25" stroke="#ef4444" stroke-width="2" stroke-linecap="round" />
<line x1="481.29" y1="642.25" x2="441.05" y2="642.25" stroke="#ef4444" stroke-width="2" stroke-linecap="round" />
<line x1="441.05" y1="642.25" x2="400.80" y2="642.25" stroke="#ef4444" stroke-width="2" stroke-linecap="round" />
<line x1="400.80" y1="642.25" x2="372.32" y2="618.50" stroke="#ef4444" stroke-width="2" stroke-linecap="round" />
<line x1="372.32" y1="618.50" x2="334.16" y2="618.50" stroke="#ef4444" stroke-width="2" stroke-linecap="round" />
<line x1="334.16" y1="618.50" x2="295.99" y2="618.50" stroke="#ef4444" stroke-width="2" stroke-linecap="round" />
<line x1="295.99" y1="618.50" x2="257.83" y2="618.50" stroke="#ef4444" stroke-width="2" stroke-linecap="round" />
<line x1="257.83" y1="618.50" x2="219.66" y2="618.50" stroke="#ef4444" stroke-width="2" stroke-linecap="round" />
<line x1="219.66" y1="618.50" x2="181.50" y2="618.50" stroke="#ef4444" stroke-width="2" stroke-linecap="round" />
<line x1="181.50" y1="618.50" x2="181.50" y2="574.80" stroke="#ef4444" stroke-width="2" stroke-linecap="round" />
<line x1="181.50" y1="574.80" x2="181.50" y2="531.10" stroke="#ef4444" stroke-width="2" stroke-linecap="round" />
<line x1="181.50" y1="531.10" x2="181.50" y2="487.40" stroke="#ef4444" stroke-width="2" stroke-linecap="round" />
<line x1="181.50" y1="487.40" x2="181.50" y2="443.70" stroke="#ef4444" stroke-width="2" stroke-linecap="round" />
<line x1="181.50" y1="443.70" x2="181.50" y2="400.00" stroke="#ef4444" stroke-width="2" stroke-linecap="round" />
<line x1="181.50" y1="400.00" x2="181.50" y2="356.30" stroke="#ef4444" stroke-width="2" stroke-linecap="round" />
<line x1="181.50" y1="356.30" x2="181.50" y2="312.60" stroke="#ef4444" stroke-width="2" stroke-linecap="round" />
<line x1="181.50" y1="312.60" x2="181.50" y2="268.90" stroke="#ef4444" stroke-width="2" stroke-linecap="round" />
<line x1="181.50" y1="268.90" x2="181.50" y2="225.20" stroke="#ef4444" stroke-width="2" stroke-linecap="round" />
<line x1="181.50" y1="225.20" x2="181.50" y2="181.50" stroke="#ef4444" stroke-width="2" stroke-linecap="round" />
<line x1="181.50" y1="181.50" x2="221.88" y2="181.50" stroke="#ef4444" stroke-width="2" stroke-linecap="round" />
<line x1="221.88" y1="181.50" x2="262.25" y2="181.50" stroke="#ef4444" stroke-width="2" stroke-linecap="round" />
<line x1="262.25" y1="181.50" x2="262.25" y2="226.03" stroke="#ef4444" stroke-width="2" stroke-linecap="round" />
<line x1="262.25" y1="226.03" x2="262.25" y2="270.56" stroke="#ef4444" stroke-width="2" stroke-linecap="round" />
<line x1="262.25" y1="270.56" x2="262.25" y2="315.09" stroke="#ef4444" stroke-width="2" stroke-linecap="round" />
<line x1="262.25" y1="315.09" x2="262.25" y2="359.62" stroke="#ef4444" stroke-width="2" stroke-linecap="round" />
<line x1="262.25" y1="359.62" x2="262.25" y2="404.16" stroke="#ef4444" stroke-width="2" stroke-linecap="round" />
<line x1="262.25" y1="404.16" x2="262.25" y2="448.69" stroke="#ef4444" stroke-width="2" stroke-linecap="round" />
<line x1="262.25" y1="448.69" x2="262.25" y2="493.22" stroke="#ef4444" stroke-width="2" stroke-linecap="round" />
<line x1="262.25" y1="493.22" x2="262.25" y2="537.75" stroke="#ef4444" stroke-width="2" stroke-linecap="round" />
<line x1="262.25" y1="537.75" x2="306.78" y2="537.75" stroke="#ef4444" stroke-width="2" stroke-linecap="round" />
<line x1="306.78" y1="537.75" x2="351.31" y2="537.75" stroke="#ef4444" stroke-width="2" stroke-linecap="round" />
<line x1="351.31" y1="537.75" x2="395.84" y2="537.75" stroke="#ef4444" stroke-width="2" stroke-linecap="round" />
<line x1="395.84" y1="537.75" x2="440.38" y2="537.75" stroke="#ef4444" stroke-width="2" stroke-linecap="round" />
<line x1="440.38" y1="537.75" x2="484.91" y2="537.75" stroke="#ef4444" stroke-width="2" stroke-linecap="round" />
<line x1="484.91" y1="537.75" x2="529.44" y2="537.75" stroke="#ef4444" stroke-width="2" stroke-linecap="round" />
<line x1="529.44" y1="537.75" x2="573.97" y2="537.75" stroke="#ef4444" stroke-width="2" stroke-linecap="round" />
<line x1="573.97" y1="537.75" x2="618.50" y2="537.75" stroke="#ef4444" stroke-width="2" stroke-linecap="round" />
<line x1="618.50" y1="537.75" x2="618.50" y2="578.12" stroke="#ef4444" stroke-width="2" stroke-linecap="round" />
<line x1="618.50" y1="578.12" x2="618.50" y2="618.50" stroke="#ef4444" stroke-width="2" stroke-linecap="round" />
<line x1="618.50" y1="618.50" x2="574.01" y2="618.50" stroke="#ef4444" stroke-width="2" stroke-linecap="round" />
<line x1="574.01" y1="618.50" x2="529.53" y2="618.50" stroke="#ef4444" stroke-width="2" stroke-linecap="round" />
<line x1="529.53" y1="618.50" x2="485.04" y2="618.50" stroke="#ef4444" stroke-width="2" stroke-linecap="round" />
<line x1="485.04" y1="618.50" x2="440.56" y2="618.50" stroke="#ef4444" stroke-width="2" stroke-linecap="round" />
<line x1="440.56" y1="618.50" x2="396.07" y2="618.50" stroke="#ef4444" stroke-width="2" stroke-linecap="round" />
<line x1="396.07" y1="618.50" x2="367.59" y2="594.75" stroke="#ef4444" stroke-width="2" stroke-linecap="round" />
<line x1="367.59" y1="594.75" x2="327.01" y2="594.75" stroke="#ef4444" stroke-width="2" stroke-linecap="round" />
<line x1="327.01" y1="594.75" x2="286.42" y2="594.75" stroke="#ef4444" stroke-width="2" stroke-linecap="round" />
<line x1="286.42" y1="594.75" x2="245.84" y2="594.75" stroke="#ef4444" stroke-width="2" stroke-linecap="round" />
<line x1="245.84" y1="594.75" x2="205.25" y2="594.75" stroke="#ef4444" stroke-width="2" stroke-linecap="round" />
<line x1="205.25" y1="594.75" x2="205.25" y2="551.47" stroke="#ef4444" stroke-width="2" stroke-linecap="round" />
<line x1="205.25" y1="551.47" x2="205.25" y2="508.19" stroke="#ef4444" stroke-width="2" stroke-linecap="round" />
<line x1="205.25" y1="508.19" x2="205.25" y2="464.92" stroke="#ef4444" stroke-width="2" stroke-linecap="round" />
<line x1="205.25" y1="464.92" x2="205.25" y2="421.64" stroke="#ef4444" stroke-width="2" stroke-linecap="round" />
<line x1="205.25" y1="421.64" x2="205.25" y2="378.36" stroke="#ef4444" stroke-width="2" stroke-linecap="round" />
<line x1="205.25" y1="378.36" x2="205.25" y2="335.08" stroke="#ef4444" stroke-width="2" stroke-linecap="round" />
<line x1="205.25" y1="335.08" x2="205.25" y2="291.81" stroke="#ef4444" stroke-width="2" stroke-linecap="round" />
<line x1="205.25" y1="291.81" x2="205.25" y2="248.53" stroke="#ef4444" stroke-width="2" stroke-linecap="round" />
<line x1="205.25" y1="248.53" x2="205.25" y2="205.25" stroke="#ef4444" stroke-width="2" stroke-linecap="round" />
<line x1="205.25" y1="205.25" x2="238.50" y2="205.25" stroke="#ef4444" stroke-width="2" stroke-linecap="round" />
<line x1="238.50" y1="205.25" x2="238.50" y2="249.78" stroke="#ef4444" stroke-width="2" stroke-linecap="round" />
<line x1="238.50" y1="249.78" x2="238.50" y2="294.31" stroke="#ef4444" stroke-width="2" stroke-linecap="round" />
<line x1="238.50" y1="294.31" x2="238.50" y2="338.84" stroke="#ef4444" stroke-width="2" stroke-linecap="round" />
<line x1="238.50" y1="338.84" x2="238.50" y2="383.38" stroke="#ef4444" stroke-width="2" stroke-linecap="round" />
<line x1="238.50" y1="383.38" x2="238.50" y2="427.91" stroke="#ef4444" stroke-width="2" stroke-linecap="round" />
<line x1="238.50" y1="427.91" x2="238.50" y2="472.44" stroke="#ef4444" stroke-width="2" stroke-linecap="round" />
<line x1="238.50" y1="472.44" x2="238.50" y2="516.97" stroke="#ef4444" stroke-width="2" stroke-linecap="round" />
<line x1="238.50" y1="516.97" x2="238.50" y2="561.50" stroke="#ef4444" stroke-width="2" stroke-linecap="round" />
<line x1="238.50" y1="561.50" x2="283.03" y2="561.50" stroke="#ef4444" stroke-width="2" stroke-linecap="round" />
<line x1="283.03" y1="561.50" x2="327.56" y2="561.50" stroke="#ef4444" stroke-width="2" stroke-linecap="round" />
<line x1="327.56" y1="561.50" x2="372.09" y2="561.50" stroke="#ef4444" stroke-width="2" stroke-linecap="round" />
<line x1="372.09" y1="561.50" x2="416.62" y2="561.50" stroke="#ef4444" stroke-width="2" stroke-linecap="round" />
<line x1="416.62" y1="561.50" x2="461.16" y2="561.50" stroke="#ef4444" stroke-width="2" stroke-linecap="round" />
<line x1="461.16" y1="561.50" x2="505.69" y2="561.50" stroke="#ef4444" stroke-width="2" stroke-linecap="round" />
<line x1="505.69" y1="561.50" x2="550.22" y2="561.50" stroke="#ef4444" stroke-width="2" stroke-linecap="round" />
<line x1="550.22" y1="561.50" x2="594.75" y2="561.50" stroke="#ef4444" stroke-width="2" stroke-linecap="round" />
<line x1="594.75" y1="561.50" x2="594.75" y2="594.75" stroke="#ef4444" stroke-width="2" stroke-linecap="round" />
<line x1="594.75" y1="594.75" x2="554.07" y2="594.75" stroke="#ef4444" stroke-width="2" stroke-linecap="round" />
<line x1="554.07" y1="594.75" x2="513.39" y2="594.75" stroke="#ef4444" stroke-width="2" stroke-linecap="round" />
<line x1="513.39" y1="594.75" x2="472.71" y2="594.75" stroke="#ef4444" stroke-width="2" stroke-linecap="round" />
<line x1="472.71" y1="594.75" x2="432.02" y2="594.75" stroke="#ef4444" stroke-width="2" stroke-linecap="round" />
<line x1="432.02" y1="594.75" x2="391.34" y2="594.75" stroke="#ef4444" stroke-width="2" stroke-linecap="round" />
<text x="20" y="24" font-family="Segoe UI" font-size="14" fill="#111827">Violations: 0 | Rings: 7 | Shots: 7</text>
</svg>
